<svg id="Ebene_1" data-name="Ebene 1" xmlns="http://www.w3.org/2000/svg" viewBox="0 0 67 29.753"><title>partner</title><path d="M31.5694,19.2451a.2029.2029,0,0,0-.2852-.0042,2.3459,2.3459,0,0,1-1.71.7831,1.97,1.97,0,0,1-1.92-2.1056,1.9545,1.9545,0,0,1,1.92-2.0679,2.3311,2.3311,0,0,1,1.6651.7455.2029.2029,0,0,0,.2926-.0166l.7267-.8372a.204.204,0,0,0-.0124-.2811,3.5407,3.5407,0,0,0-2.6626-1.06,3.5354,3.5354,0,0,0-.0457,7.07,3.5341,3.5341,0,0,0,2.76-1.2037.2051.2051,0,0,0-.002-.2853Z" transform="translate(0 -0.1235)" fill="#fefefe"/><path d="M36.2031,14.401a3.5241,3.5241,0,0,0-3.58,3.5528,3.4615,3.4615,0,0,0,3.5612,3.5175,3.525,3.525,0,0,0,3.581-3.5529A3.4625,3.4625,0,0,0,36.2031,14.401Zm0,5.623a1.9981,1.9981,0,0,1-1.9847-2.1056,1.9743,1.9743,0,0,1,1.966-2.0679,1.9975,1.9975,0,0,1,1.9847,2.1033A1.9761,1.9761,0,0,1,36.2031,20.024Z" transform="translate(0 -0.1235)" fill="#fefefe"/><path d="M43.416,17.2229c-1.3037-.3124-1.3693-.5123-1.3693-.8309,0-.3353.34-.56.8445-.56a2.7079,2.7079,0,0,1,1.6254.6205.199.199,0,0,0,.2874-.0457l.6082-.8539a.2064.2064,0,0,0-.0386-.279,3.79,3.79,0,0,0-2.4647-.8539,2.1837,2.1837,0,0,0-2.4022,2.0908c0,1.3079.8424,1.7681,2.3013,2.1222,1.2026.2769,1.2942.5,1.2942.8039,0,.4456-.4831.6039-.935.6039a2.74,2.74,0,0,1-1.8994-.7872.2029.2029,0,0,0-.29.0229l-.681.81a.2039.2039,0,0,0,.0208.2833,4.1765,4.1765,0,0,0,2.8218,1.0829c1.5214,0,2.5044-.8351,2.5044-2.145C45.6434,17.95,44.5739,17.5041,43.416,17.2229Z" transform="translate(0 -0.1235)" fill="#fefefe"/><path d="M51.7129,15.7651v-1.05a.2038.2038,0,0,0-.2041-.2041H46.2847a.2045.2045,0,0,0-.2041.2041v1.05a.2044.2044,0,0,0,.2041.2041h1.8369v5.1856a.2049.2049,0,0,0,.2041.2062h1.1412a.2049.2049,0,0,0,.2041-.2062V15.9692h1.8378A.2037.2037,0,0,0,51.7129,15.7651Z" transform="translate(0 -0.1235)" fill="#fefefe"/><path d="M55.35,14.5885a.2037.2037,0,0,0-.1874-.1228H54.1141a.2038.2038,0,0,0-.1875.1228l-2.8322,6.485a.2052.2052,0,0,0,.1864.2875h1.16a.2044.2044,0,0,0,.1873-.125l.6092-1.4307h2.774l.6008,1.4307a.2059.2059,0,0,0,.1884.125h1.1954a.2068.2068,0,0,0,.1719-.0938.2032.2032,0,0,0,.0156-.1937Zm.0719,3.8069H53.8267l.7945-1.8555Z" transform="translate(0 -0.1235)" fill="#fefefe"/><path d="M30.9436,27.2275a2.1108,2.1108,0,0,0,1.4152-2.0721,2.14,2.14,0,0,0-.5946-1.5349,2.7906,2.7906,0,0,0-2.0024-.7018h-2.87a.2031.2031,0,0,0-.2041.2041V29.56a.2044.2044,0,0,0,.2041.2041h1.1319a.2043.2043,0,0,0,.204-.2041V27.5211h1.106l1.5212,2.1575a.2046.2046,0,0,0,.1676.0854h1.3339a.2033.2033,0,0,0,.1823-.11.2082.2082,0,0,0-.0156-.2124Zm-2.7157-2.87H29.67c.5154,0,1.13.1479,1.13.8788,0,.54-.43.8727-1.12.8727H28.2279Z" transform="translate(0 -0.1235)" fill="#fefefe"/><path d="M33.7,22.7952h1.1318A.2051.2051,0,0,1,35.0369,23v6.4361a.2041.2041,0,0,1-.2041.2041H33.701a.2051.2051,0,0,1-.2051-.2051V22.9992A.2041.2041,0,0,1,33.7,22.7952Z" fill="#fefefe"/><path d="M41.6187,27.65a.2029.2029,0,0,0-.2852-.0041,2.343,2.343,0,0,1-1.7088.7809,2.0927,2.0927,0,0,1,0-4.1713,2.3283,2.3283,0,0,1,1.664.7455.2029.2029,0,0,0,.2926-.0166l.7268-.8373a.2027.2027,0,0,0-.0136-.281,3.5429,3.5429,0,0,0-2.6615-1.058,3.5343,3.5343,0,0,0-.0457,7.0682,3.5294,3.5294,0,0,0,2.7594-1.2037.2042.2042,0,0,0-.0021-.2854Z" transform="translate(0 -0.1235)" fill="#fefefe"/><path d="M49.7428,29.4787,46.91,22.9936a.2042.2042,0,0,0-.1875-.1228H45.6735a.2038.2038,0,0,0-.1874.1228l-2.8333,6.4851a.2037.2037,0,0,0,.1875.2853h1.1589a.2039.2039,0,0,0,.1884-.125l.6091-1.4286H47.57l.6008,1.4286a.2031.2031,0,0,0,.19.125h1.1954a.2016.2016,0,0,0,.1708-.0916A.2071.2071,0,0,0,49.7428,29.4787Zm-2.7615-2.68H45.3861L46.18,24.945Z" transform="translate(0 -0.1235)" fill="#fefefe"/><path d="M43.55,5.5565c-.0083-.1229-.2-.1187-.1906-.2854-.0781-.0146-.0937-.102-.1489-.1394-.04-.0271-.1228,0-.1167-.0688-.1072-.0105-.1342-.0312-.227-.04-.203-.0146-.5257.0271-.6319.202.0052.0583-.0219.0751.0114.1-.0417.0166-.0542.0645-.0645.1145.0208.0625.0614.0708.0218.16.1041.052.0427.2541.2238.2687-.002.04-.026.0291-.0031.0562.0448.0229.0792.0063.1323-.0022.1489.2063.504-.0457.7507.0417.0677-.04.0917-.1208.1708-.1479C43.47,5.6835,43.5576,5.6522,43.55,5.5565Z" transform="translate(0 -0.1235)" fill="#fefefe" fill-rule="evenodd"/><path d="M39.0354,2.5159c.0063-.0249.0125-.052.0208-.0791-.0177-.002-.0437.0063-.0427-.01.0042-.0374.0615-.0166.0584-.06-.0032-.0229-.0459-.0083-.0188-.0542.0374-.0083.0281-.0645.0729-.0625.026-.0624-.02-.0978.0552-.1165-.0062-.3083.3134-.2791.49-.1916.0416-.0563-.0032-.1042.1093-.0917.0157-.0666-.0281-.0333-.0489-.052.04.0063.0365-.0333.0562-.0479-.0573-.0083-.127-.0708-.1113-.1021.1239.0354.3289-.1062.2915-.1062-.0073-.0375.0531-.0708-.026-.0812-.0063.05-.151.0042-.1844-.0417.075-.0166.0843.0229.1271.0312-.0688-.1519-.3718-.1123-.41-.2894-.0552.0146-.0542-.0167-.1042-.0062.0115-.06-.0374-.0667-.0489-.1084a.5521.5521,0,0,0-.52.1812c-.0374.1645-.1707.327-.2061.5186a.2038.2038,0,0,0-.0688.1729c-.1187.0854-.1156.2582-.1405.3748a.6065.6065,0,0,1-.0614.0729l.0052.14c-.0459.0916-.0782.2665-.125.3872-.0187.0334-.1062.2833-.0718.2854-.0094.1145-.0584.279-.0885.4561a2.46,2.46,0,0,1-.075.4831c-.0323.1021-.0729.36-.0854.4061h-.0011a3.3251,3.3251,0,0,0-.1145.5436.3934.3934,0,0,1-.0229.1416c-.0448.0749-.0114.0832-.0177.1271-.0052.0186-.0114.1332-.0136.1831a2.259,2.259,0,0,0-.0541.3728c-.02,0-.0062.0126-.0229.0563a2.7754,2.7754,0,0,1-.7456-.0125,1.0427,1.0427,0,0,1-.281-.0209,1.4338,1.4338,0,0,0-.2333-.0186c-.073-.0022-.2385.0208-.3437.0083-.1072-.0105-.1812-.0667-.2894-.075-.0406-.0021-.0906-.0042-.1333-.0042-.1916.0021-.2842-.0438-.4249.0479-.0749.1687-.11.3208-.001.4353-.0261.0145-.0615.0166-.0541.06.0291.0479.1582.0562.0708.1355.0864-.0168.0322.0437.051.0666.0812,0,.0989.0728.1811.1a4.1355,4.1355,0,0,0,.5322.0417,3.7875,3.7875,0,0,0,.4383.05,6.5546,6.5546,0,0,0,1.0309.0042c-.0208.0478.0146.0457.0542.0374-.0209.0729.0354.0666.077.1083a.1488.1488,0,0,0-.0969.05,1.1071,1.1071,0,0,1-.0374.2978c.0145.0354.0582.027.0708.0375-.0052.0208-.0386.0166-.0625.0187a3.2439,3.2439,0,0,0-.0146.4956c-.001.0417-.0343.0979-.0312.1416a1.8062,1.8062,0,0,1,.0031.24,1.2928,1.2928,0,0,1-.0021.1561c-.0031.0063-.0323.0126-.0333.0313a.8682.8682,0,0,0,.0375.2082,1.8438,1.8438,0,0,1-.025.227c.0021.0854.0364.1708.0354.2521-.001.0833-.0344.1541-.0042.1978.0052.1957.0126.3936.0209.5893.01-.0437.1364.7352.2051.9726-.025.1083.0271.1333.0458.1937.05.1624.0594.3769.1156.5143.0124.0334.0427.05.0541.0792.025.0729.02.152.0459.2228.0437.1145.1457.2229.1905.3395a.817.817,0,0,0,.0813.1479c.0322.0562.0582.129.0811.1644.0531.0751.1011.16.1542.227.0363-.0041.0426.0209.0894.0085-.0218.0874.1241.1062.1241.2165.2248.0458.2978.2437.5434.2666.0354-.0063.03-.05.0771-.0479.04.0645.1687.0708.252.05.0312-.0166.024-.0666.0489-.0874a2.5542,2.5542,0,0,0,.2572-.0625c-.0156-.0042.0511-.06.0646-.09a.5728.5728,0,0,1,.0593-.0041.0641.0641,0,0,1,.0625-.0625c-.0083-.127.1614-.1624.1791-.3082-.0468-.0041-.127-.1417-.0968-.1625-.0074-.04-.0531-.0686.0052-.1a.9282.9282,0,0,1-.04-.377c-.0115.0417-.0313-.0125-.0594.0043-.0063.054-.073.0437-.0354.102-.1.052-.3072.077-.251.2041-.1353.0583-.226.2041-.4279.1582a1.5034,1.5034,0,0,1-.4634-.7976c-.0906-.0687-.1031-.2125-.1114-.3582-.0375.0063-.0459-.0188-.0573-.0374-.0031-.1875-.1125-.2729-.101-.4728a3.0924,3.0924,0,0,1-.1656-.7352c-.0124-.1041-.0218-.1458-.026-.2228a.9346.9346,0,0,0,.0094-.1c-.0052-.0249-.0354-.04-.0386-.0666-.0114-.1021.0334-.2312-.0333-.2937l-.0312-1.0141c.0437-.152-.02-.2916.0042-.4374a.4466.4466,0,0,0-.0011-.1125c-.002-.152.0209-.3164.0229-.4394.0021-.1833.0625-.3394.0469-.4977.0552.0166.0114-.0625.0667-.0457.0446.002.0041.05.0593-.0063.026.0916.1957-.0042.3009-.0084.051-.0021.204.0375.2343.0375.0958.0021.18-.0333.2406-.0021.0385-.0207.0478-.0708.0979-.0791-.0157.0437-.0136.0271-.0085.0708.0428,0,.05-.0354.0938-.0354a3.2622,3.2622,0,0,0,.9486.0687c.0343-.075.0958-.0479.1582-.0687-.0166.0584-.0645.0125-.0677.06a.6663.6663,0,0,1,.4405.0646c.1468-.0292.2937.0582.4457.0228-.0063.0084-.0437.0563-.0072.0563.026-.0083.08-.0688.0936-.0354-.0177.002-.0354.0062-.0333.0313.1114-.0147.1135.0728.2322.052-.0218.0583.0407.04.0187.0979.0469-.0146.0532.0083.0886.0063.1322.1561-.0594.6538-.1188.87-.0374.1248-.2509,1.0037-.28,1.1349-.0239.1062-.0708.2207-.0885.302-.0052.027.0177.0312.0094.0562-.0031.0146-.03.0167-.0343.0458-.0042.0563.0041.1208,0,.1833a1.2216,1.2216,0,0,0,.0124.1958c.0022.2478.0459,1.0058.2052,1.0767a.9809.9809,0,0,0,.075.1915c.0749.0041.0583.0229.14.0312.0541.01.0947.01.126.0209a1.81,1.81,0,0,1,.254-.0063c.0573-.0208.0824-.102.1021-.1645.05-.1437.2749-.4.0854-.4853.0166-.052-.0282-.0666.0083-.1a.0855.0855,0,0,1-.0426-.025c.0374-.04-.0209-.0624-.0209-.11a8.1029,8.1029,0,0,0,.024-.91,1.5622,1.5622,0,0,0,.1239-.3645c.0052-.0188-.0167-.0229-.0094-.0542.0115-.0457.0458-.0853.0583-.1311.0229-.1.2207-.9684.2467-1.0787.0917-.4041.1907-.8456-.0363-1.0831.028-.0312.0009-.0186.0072-.0582-.0968-.05-.128-.1583-.227-.2083-.0146-.077-.0916-.075-.151-.1-.02-.0083-.0312-.0437-.052-.0521a5.3611,5.3611,0,0,0-.629-.0624C41.4605,6.2333,41.43,6.2,41.4,6.1938a3.7133,3.7133,0,0,1-.5-.0605.3418.3418,0,0,1-.1374.0229,1.1264,1.1264,0,0,0-.3665-.0541c-.2323-.0333-.62-.0229-.8019-.0374-.0187.0207-.0229.054-.0552.06-.0114-.0188-.0051-.05-.0186-.0666a4.0424,4.0424,0,0,0-.7373.027c-.0333-.1291-.2645-.0124-.3635-.0708.0053-.0333.0094-.0666.0136-.1-.0125-.0332.0521-.1519.0209-.2415-.0365-.0125-.0365-.0583.01-.0708-.0186,0,.023-.1042.0105-.1687a.0591.0591,0,0,1-.0511.0333c-.0311-.1208.1156-.1166.1011-.2624-.0136-.0333-.0292-.0291-.0125-.0271.027-.0811.0073-.2936.0374-.3415.0146-.0188.0271.0041.0365-.0313a.2935.2935,0,0,0,.0083-.1562,4.3869,4.3869,0,0,1,.1073-.6164c-.025-.0166-.0136-.0666-.0271-.0937.0791-.0708.0562-.1228.0636-.1749.0166-.1332.1831-.7227.1853-.7289.0417-.1229.03-.26.0655-.3978.0063-.0249.0365-.0541.0448-.0749.0177-.0479.0022-.0938.0146-.14" transform="translate(0 -0.1235)" fill="#fefefe" fill-rule="evenodd"/><path d="M22.5874,8.2575c.0385.177-.1614.09-.2072.1709C22.349,8.3845,22.4989,8.2742,22.5874,8.2575Z" transform="translate(0 -0.1235)" fill="#fefefe" fill-rule="evenodd"/><path d="M23.159,14.805c-.0551-.0166-.0717.0125-.1186.0042-.0031-.0354.0666.0125.0478-.04-.1009-.0166-.2009.0708-.329.06-.0364-.0042-.0635-.0458-.1124-.0542-.0323-.0041-.074.0208-.1052.0208-.1447-.0041-.2885-.0417-.3145-.1.0605-.04.149.0062.2073-.01-.0177-.0479-.0854-.0022-.04-.0625a.6829.6829,0,0,0-.2311-.0479.122.122,0,0,1-.0489-.1062,1.9551,1.9551,0,0,1-.2457-.0646c.0531-.0791-.1053-.06-.073-.1666-.0291-.0167-.04-.0478-.0833-.05.0084-.0937-.0885-.0957-.0552-.2082.0594-.0021.0542.052.1282.04,0,.0146-.0022.0291-.0032.0437.0854.0312.1822-.0042.2281.0771.07-.1021.1822-.0125.2655-.0063.0333.0021.0552-.0188.0906-.023.0916-.0083.1895.023.278.0084a1.8477,1.8477,0,0,0,.2728-.0792,2.755,2.755,0,0,0,.5539-.2873,1.8333,1.8333,0,0,1,.2562-.2416,2.26,2.26,0,0,0,.3145-.3957c.01-.0208-.0011-.0521.0062-.0728a1.8636,1.8636,0,0,0,.1094-.2375c.0051-.025-.01-.0562-.0094-.075.0125-.1125.0573-.204.0573-.3a1.495,1.495,0,0,0-.03-.1625,3.0374,3.0374,0,0,0-.1073-.6227c-.0458-.1374-.1156-.2686-.1562-.406-.0125-.0437-.0052-.0917-.0166-.1333a1.2377,1.2377,0,0,0-.1-.21c.0166-.05-.0167-.0583-.0062-.1041a.3512.3512,0,0,1-.0531-.0624c-.0751-.3374-.2073-.629-.2823-.9684a.1007.1007,0,0,1,.0208-.0729c-.0269-.0042-.0572-.0708-.0447-.15a3.8571,3.8571,0,0,1-.101-.5311.1071.1071,0,0,1,.02-.0562c-.0032-.0458-.0292-.09-.0334-.1354a3.6511,3.6511,0,0,1,.0188-.5373,1.5261,1.5261,0,0,1,.0291-.506c-.0416-.09.0615-.1978.0074-.2478.0416-.0188.026-.0688.0416-.1416.0146-.0646.0677-.1438.0281-.1562.1-.1853.1416-.4165.2333-.6373.0062-.0167.0406-.0333.0489-.0541.0062-.0209-.0041-.0542.0052-.0729.0261-.05.076-.0875.101-.1375.023-.0478.01-.0791.04-.127.0416-.0646.0968-.1562.1551-.25.0385-.0605.0958-.1187.1323-.177s.0458-.0979.0874-.1542c.0281-.0374.048-.054.0823-.0957.0614-.0708.1656-.1625.2281-.2416a.2323.2323,0,0,1,.0177-.0438c.0072-.0061.0363.0105.0437.0042.0188-.0166.02-.052.0365-.0687a1.0292,1.0292,0,0,1,.3123-.2228A.3054.3054,0,0,0,25,4.8651c.0688.0062.0833.0853.1447.027.097.0792.2593.1042.2886.2416.1374-.0042.1394.1062.205.1625a1.4555,1.4555,0,0,1-.02.2312c.0374.052.04-.0563.0749-.0085-.02.0354-.0072.1084-.0812.0813a1.0652,1.0652,0,0,1-.0812.2561.0835.0835,0,0,1-.0583.0084c-.0406.152-.1333.2374-.1812.379a.2248.2248,0,0,0-.1447.1333.5821.5821,0,0,0-.1177.0063,1.1412,1.1412,0,0,1-.2124.2436c-.0073-.127.18-.16.176-.3353-.1.0355-.1427.2083-.2635.1687a.6924.6924,0,0,0-.0854.1229c0,.05.0437-.05.0437.002-.0177.09-.0739.0334-.11.0917-.023.0479.0458.0166.024.0625a5.8161,5.8161,0,0,0-.4385,1.1432,3.949,3.949,0,0,0-.07.6207,3.7478,3.7478,0,0,0,.0115.5415,1.9225,1.9225,0,0,0,.1156.5331,2.6391,2.6391,0,0,0,.1488.6518c.023.06.04.152.0677.24.0365.1187.1062.2291.1447.3457.0053.0187-.0072.04-.0052.0583.0146.06.0646.1188.0875.1811.025.071.0322.1438.0552.2084.0333.0916.0479.1749.0937.2852a1.5435,1.5435,0,0,1,.1229.4332c.0031.0292.0333.0542.0375.0771.0021.0125-.0188.0354-.0188.0416a3.9709,3.9709,0,0,1,.0781.631,3.5905,3.5905,0,0,1-.1426.6144.1154.1154,0,0,0,.0094.06c-.0053.0166-.04.0292-.049.0541-.0166.0459.0083.1084-.0563.14-.0031.0354-.0062.0687-.0083.1021a.5954.5954,0,0,0-.1416.2665,2.752,2.752,0,0,1-.4967.4665c-.0281.0208-.0635.0416-.0947.0645a.7048.7048,0,0,1-.1563.1042c-.1071.0583-.2217.1707-.3518.16a.5923.5923,0,0,1-.2489-.0063C23.3184,14.7218,23.1747,14.755,23.159,14.805Z" transform="translate(0 -0.1235)" fill="#fefefe" fill-rule="evenodd"/><path d="M36.527,10.3171c-.0167-.0416.0573-.054-.01-.0645a.599.599,0,0,1,.127-.175.1083.1083,0,0,0-.0313-.1,1.9066,1.9066,0,0,0,.1271-.1916c-.0843-.0208.0343-.1062-.0521-.154.0115-.0293-.0021-.0563.0261-.0855-.0615-.0562.001-.1166-.09-.1708-.0406.0354-.0041.0688-.0625.1062l.0292.0251c-.04.075-.125.11-.1073.1916-.11-.0251-.1322.1041-.1843.1582-.0208.023-.0478.023-.074.0417-.0686.05-.1154.1291-.1842.1749a1.5085,1.5085,0,0,1-.2322.1145,2.43,2.43,0,0,1-.5186.1708,3.0488,3.0488,0,0,1-.55.0042c-.123-.0105-.2364-.1333-.3718-.1353-.0739-.0854-.1885-.1105-.2676-.1854a1.85,1.85,0,0,1-.355-.7873c.04-.0811-.0354-.1311-.0448-.1978-.0052-.0375.0145-.0916.0125-.1374-.0074-.1228-.0647-.2041-.0177-.3186-.024-.0021-.0324-.0021-.0293-.0292.0188-.1833-.0218-.3208-.0031-.4873.0105-.0937.05-.1937.0584-.2915a.8484.8484,0,0,1,.0509-.2187c.0334-.1062.0386-.2353.0782-.3374.02-.0521.0614-.0958.0771-.1416a1.515,1.515,0,0,0,.0947-.3561c.0021-.0375-.0219-.075-.0042-.1208-.051-.0083-.0468-.0688-.1041-.0708.0021-.0479-.0656.05-.0635.0041.0406-.0749-.0677-.0646-.0011-.1686-.0332-.0354-.1343-.0063-.1186-.0855-.073-.002-.1.0022-.1364-.0541-.0542.06-.076-.0291-.124-.0229a.4967.4967,0,0,0-.3925.4935c-.0209.0334-.0583.0522-.0719.0959-.0166.2332-.2135.5747-.19.7872a1.4847,1.4847,0,0,0-.3373.581c-.0334.0062-.0448.0333-.0677.05-.0625.177-.13.2811-.1969.4519-.0708.0083-.0791.0791-.104.1145-.0865.1167-.2447.4416-.3718.4416-.2708.002-.5217-1.7849-.5727-1.77-.0021-.1021-.0468-.2332-.0542-.3291-.0728.0125-.0874-.0208-.1427.0083-.2207-.1853-.5.0937-.6091.277.0178,0,.0364.0021.0281.0291-.0489.0042-.0739.0354-.1145.05a.7509.7509,0,0,1-.2207.3332.7439.7439,0,0,1-.1333.25c-.1011.0229-.2114.2228-.226.2249-.027.0563-.0416.0749-.0416.1083a.1822.1822,0,0,1-.0968.0728,3.5783,3.5783,0,0,1-.1979.3.3025.3025,0,0,0-.0864.0375,1.3451,1.3451,0,0,1-.1291.1478c-.0365.0125-.3124.41-.33.4269a2.7659,2.7659,0,0,1-.3426.3061,4.3212,4.3212,0,0,1-.7748.6935A1.1079,1.1079,0,0,1,26.54,10.59c-.0791-.0791-.2362-.1729-.2539-.25a1.3785,1.3785,0,0,1-.0334-.2478c-.0011-.0271-.0105-.1458-.0136-.1687a.6164.6164,0,0,1,.0562-.3145.609.609,0,0,1,.2489-.3978c.0979-.0312.301-.1457.3978-.0791.0584-.0354.1438-.1083.2-.0666a13.8014,13.8014,0,0,0,1.7263-1.008,3.5611,3.5611,0,0,0,.2958-.2707,1.3322,1.3322,0,0,1,.2146-.3312.6324.6324,0,0,1,.1165-.2186c.11-.4623.27-.8976-.0927-1.0933-.001-.0271.0261-.0354.0261-.06-.1552-.0437-.3394-.2811-.4873-.2686-.0157-.0354-.1916-.0271-.2978-.0479a3.6376,3.6376,0,0,0-1.41.7851c.0042.0375-.1967.1458-.1863.1895a3.1127,3.1127,0,0,0-.3072.2707.5247.5247,0,0,1-.0427.0542c-.0385.0417-.0677.0625-.1031.1062-.0271.0334-.0708.1187-.0947.1521s-.1146.0937-.1417.1249c-.0416.0479-.0759.1187-.1082.1562-.0229.0291-.0146.0354-.0229.0479-.0219.0271-.0719.0625-.09.09-.0291.0437-.0031.1124-.0874.1249-.1053.2916-.32.4769-.3708.76-.12.1124-.0271.3164-.1468.4331a.74.74,0,0,1-.1281.3395,5.0659,5.0659,0,0,1-.0655.6289,1.0292,1.0292,0,0,0,.0635.3,1.4592,1.4592,0,0,0,.1041.4227,2.0957,2.0957,0,0,0,.15.1771,1.68,1.68,0,0,0,.2833.3081c.0791.0417.1582.0584.1906.1271a2.69,2.69,0,0,0,.9922.077,4.4592,4.4592,0,0,0,.7383-.26,2.5306,2.5306,0,0,0,.5228-.3894c-.0323.0021.2072-.0854.1738-.1395.0126-.0584.2239-.16.2739-.1853a1.2472,1.2472,0,0,1,.227-.21l.0145.0291a.6031.6031,0,0,1,.1073-.127,4.9367,4.9367,0,0,0,.3895-.3936c.0031-.0041.1239-.1771.1489-.202.0354-.0417.2394-.2812.4831-.5706.0094-.0126.02-.0229.03-.0355a1.7153,1.7153,0,0,1,.2113-.231c-.0011.0562.1311.229.1051.2769a1.6875,1.6875,0,0,1,.0959.227.7191.7191,0,0,1,.0874.2478c.0511.0083.0334.1188.1031.202a5.9952,5.9952,0,0,1,.2874.5478c.0323.0666.251.3477.2884.3394.1365.1145.3832-.0333.5592-.1978a8.3174,8.3174,0,0,0,.7528-.933.4436.4436,0,0,1,.0219-.0521c.0083-.0062.0271-.1.0334-.1a.09.09,0,0,1,.028.0521c.0063.0312.0094.0688.0105.0729a1.9836,1.9836,0,0,0,.782,1.3c.1551.252.5716.3165.7934.46.0958-.0126.1271-.0251.1811.0041l-.0041.0083a.1755.1755,0,0,1,.025.0167c.0531.0083.1052.0125.1562.0166.0052.0021.0084.0042.0062.0083.0885-.0249.09.0334.21-.0062h.02a1.4458,1.4458,0,0,0,.2615-.0124v-.0083c.0228-.0022.0468-.0085.0708-.01a1.1491,1.1491,0,0,0,.2019-.052c.1073-.0271.2229-.0188.3051-.1062.0834-.06.1333-.0854.1625-.1354-.0375-.01.0812-.075.12-.0542.0282-.0416.0573-.0354.0833-.0687-.0188-.025-.0354.05-.0562.0042.0594-.073.18-.0771.2593-.1625.0228-.025.0167-.0687.0447-.1041.0188-.0229.0625-.0312.0834-.0521.0957-.0895.1707-.202.1519-.2561C36.6082,10.2089,36.5769,10.2922,36.527,10.3171ZM26.79,8.0826a5.1013,5.1013,0,0,1,.6414-.5957c.1437-.2082.1292-.1936.4519-.4018.0323-.0271.0646-.0542.0959-.0833.0333-.0188.0656-.04.0988-.0583-.0166-.0125.0469-.0209.0833-.0605.0719-.002.05-.0479.19-.15.1228-.05.2541-.1958.3967-.1958.0406.0042.1291.0854.0562.3062a1.4415,1.4415,0,0,1-.1957.4457c-.07.0874-.201.1811-.2718.2685-.0594.0938-.2291.1563-.3739.2729-.1176.0937-.281.1687-.4029.2478a2.198,2.198,0,0,1-.3551.1708,3.0138,3.0138,0,0,1-.49.26C26.587,8.53,26.588,8.4221,26.79,8.0826Z" transform="translate(0 -0.1235)" fill="#fefefe" fill-rule="evenodd"/><path d="M22.9591,8.193c-.02.0167-.0364.0062-.0551.0125-.0292-.0563-.0885.0166-.0979-.04a.9632.9632,0,0,0-.1281.0729.0688.0688,0,0,0-.0635-.025.3037.3037,0,0,1-.1051.0687c.0052-.0062.0135-.0145.0177-.0208-.0125.0063-.0313,0-.0584.0042.0219-.023.0625-.0417.07-.0771-.0344-.0145-.1093.0292-.1707.0875-.0136.0125-.02.04-.0354.05-.024.0166-.0522.01-.0688.0228-.0573.048-.0636.125-.1125.1584-.03-.0146.02-.0209.0032-.0354-.0219.0166-.0177.0354-.0469.05.0083.0167-.0062.05-.0188.0666l-.0125.0126c-.0031,0-.0052,0-.0062-.0042a.2549.2549,0,0,0-.0656.0521c-.0853.05-.2145.1249-.2291.1894a.2691.2691,0,0,0,.0573.0022c-.0083.0145.0229.0541-.026.0541-.0208-.04-.0437-.01-.0833-.0458a3.2769,3.2769,0,0,1-.4946.4145c-.0271.0291-.0011.0186-.0063.0582-.2166.1166-.3145.3666-.57.4415-.0959-.5331-.2479-1.0163-.3063-1.5848.2209-.3249.5821-.7206.478-1.1683.1292-.3-.1218-.3915-.2134-.5394a.5575.5575,0,0,0-.5207-.2374A1.6443,1.6443,0,0,0,19.49,7.7744c-.1239.1582-.3707.3145-.47.4977a17.2975,17.2975,0,0,1-1.588,1.1433c-.304.1416-.5508.2978-.8351.4374-.1572.0771-.3311.1562-.505.2248a3.3339,3.3339,0,0,1-.378.11,6.8083,6.8083,0,0,1-2.2407.4124c-.0885-.05-.2073-.0729-.2969-.1208-.002-.0187-.0177-.0292-.0093-.0583-.0947.0208-.178-.1582-.1957-.2645a1.1713,1.1713,0,0,1,.3925-.8789c.2541.0125.3811-.1562.5862-.15a5.9318,5.9318,0,0,1,.654-.2374c.0354-.0208.0469-.0458.0906-.0291.4008-.15.7424-.2957,1.0339-.3916-.001-.0229.9538-.4435,1.0768-.5206.432-.1561.8048-.4144,1.186-.5789,0-.0063.0437-.0521.0448-.0126-.1292.1333.1654-.0186.3769-.2561.1124-.127.2759-.3.2884-.4165.01-.09-.0656-.1625.0083-.2458-.0646-.0312-.0552-.1291-.0843-.1916a2.0238,2.0238,0,0,0-.5863-.4706,1.1167,1.1167,0,0,0-.36-.077c-.0678,0-.1386.04-.2083.04a4.5906,4.5906,0,0,0-2.2512.6789c-.0334.0395-.0188.0561-.0375.0874a1.5745,1.5745,0,0,0-.5259.2812,9.0755,9.0755,0,0,0-.96.683A6.6756,6.6756,0,0,0,12.613,8.672a1.6558,1.6558,0,0,1-.2165.1145q.0593-.0125.0406.0437a4.9261,4.9261,0,0,0-.7487.1354c-.0958.1395-.38.0521-.455.1666-.1677.0188-1.212.3061-1.2787.3166-.0854.0208-1.941.4623-1.9972.4623a6.8652,6.8652,0,0,1-1.1381.2312,5.076,5.076,0,0,1-.76.1353,9.669,9.669,0,0,0-1.7014.2811c-.0468-.077-.1281.023-.1936.025-.0365-.0582-.62.0188-.5489.0646-.0717-.0542-.0437.0708-.1186.0125.0031-.0208.0375-.0105.0333-.0417a.35.35,0,0,0-.1832.0688c.0052-.0208.026-.023.0332-.0417a5.0108,5.0108,0,0,1-3.1737-.4519c-.0354-.0063-.0334.0271-.074.0146-.03-.0125-.04-.0458-.0844-.0458-.1291.2082.0376.3165.0917.4373-.0489.0084-.0437-.027-.074-.0021-.0166.1374.1615.1562.1084.2478a3.667,3.667,0,0,0,2.1221.5519.0691.0691,0,0,0,.0093.0583,4.6849,4.6849,0,0,1,.62-.0333,1.5808,1.5808,0,0,0,.71-.0646c.0229.0688.3592-.0708.4914-.0645-.01.0125-.0385.0541.0105.0438a2.4973,2.4973,0,0,1,.5945-.0647c.0437.0313.5592-.0145.4613-.0645.102-.0229.1531-.0063.225-.0563-.0428.0022.5039-.1248.4591-.05a.8922.8922,0,0,0,.18-.0417,4.5377,4.5377,0,0,1,.98-.102c-.0427-.0791.2228-.0916.1219-.0437a3.0842,3.0842,0,0,0,.659-.1479c.1073-.0166.6935-.1.7144-.0937.0313-.0167.5789-.2041.5758-.1937a4.5663,4.5663,0,0,1,.96-.2041l.3727-.0521c-.0583,0,.8205-.2811.8113-.2082a.5072.5072,0,0,0,.1665-.0541c-.0042-.0375.6019-.2083.5873-.15.0656-.0042.102-.0374.1656-.0416a.922.922,0,0,0,.0916.581c-.0021.0271-.0417.0188-.0344.0562a2.3375,2.3375,0,0,0,.5935.8643,3.1285,3.1285,0,0,0,1.9086.1582,10.1359,10.1359,0,0,0,1.5141-.4727c.2208-.0853.4425-.2061.656-.2666a7.2915,7.2915,0,0,1,.9319-.5227c.3208-.279.9643-.4977,1.2433-.8226.175-.09.3853-.3582.5831-.4207a12.17,12.17,0,0,1,.35,1.7432c-.0531.0645-.0875.15-.1375.2144.0522.0188.0563-.0957.0917-.04-.1166.1292-.1551.35-.2926.4582-.0062.0292.0125.0334.0093.0583-.02-.0041-.026-.0187-.0572-.0166-.1469.3415-.3624.8851-.127,1.1871a.9738.9738,0,0,0,.3009.5414c.0625-.0083.0666.0313.1156.0313-.0021.0145-.0031.0291-.0042.0437a.1989.1989,0,0,1,.18.1041c.13.0146.2-.1312.3-.0541a2.6113,2.6113,0,0,0,.3374-.3145,2.7889,2.7889,0,0,1,.15-.504,5.9853,5.9853,0,0,0-.0291-1.5536c.1656-.31.4206-.5247.5935-.8309.0146.0187.0542.0062.074-.0146-.0406-.0708.0614-.1229.077-.1874.2166-.102.2822-.3707.5123-.456.0115-.0542.0448-.0708.025-.1167a1.6989,1.6989,0,0,0,.3853-.3415c-.0218,0-.0406-.0022-.0583-.0022a1.16,1.16,0,0,0,.1051-.1166c.2875-.21.28-.2623.1479-.2581l.0094-.0105c.0135-.0146.0146-.0334.0291-.0437.0365-.0313.1208-.04.1073-.1125.052.0166.0781-.0374.1271-.06a.1679.1679,0,0,0,.0155.0208c.0261-.0354.0448-.01.07-.0354C23.0351,8.1972,22.9935,8.2346,22.9591,8.193Zm-8.7144-.1625a7.38,7.38,0,0,1,1.06-.8121l.1146-.1292c.05-.0187.2915-.0916.3645-.127a2.8338,2.8338,0,0,1,.7923-.3228.5876.5876,0,0,1,.41-.1187c.1947-.125.4477-.0437.6872.0042a10.4025,10.4025,0,0,1-2.0783,1.2266c-.1052.04-.8414.3436-1.1392.4123C14.2426,8.2138,14.101,8.1409,14.2447,8.0305Z" transform="translate(0 -0.1235)" fill="#fefefe" fill-rule="evenodd"/><path d="M62.2725,10.8753c.0042.025.0062.05.01.075-.04-.0292-.0593.0166-.1083.0187.0042-.0375.0552-.0437.0354-.0958-.0229-.0166-.076.0083-.0833-.0313.0624-.0437.0344-.0187.1072-.0207.0042-.025.0469-.0208.0229-.0647-.0635-.0291-.1655.0917-.2478.0313.0324-.0083.0261-.0437.0407-.0667a.4035.4035,0,0,0-.27.0959c-.0634-.0375-.151.0042-.2124.0562.0479-.0166.04.0395.0948.0125.0114-.027.0448-.0416.0708-.0583.01.0375.0688.0145.0854.0438a1.0083,1.0083,0,0,1-.2582.0645c.002-.0208.0155-.0271-.0073-.0437a.4734.4734,0,0,1-.1854.0207c.0187-.0061.0437-.0061.0448-.0249-.0708.0042-.0677.0229-.0729.0458a.3877.3877,0,0,0-.2833.1124c-.0083-.0271.0177-.0312.0251-.05a.4561.4561,0,0,0-.2375.1062c-.02-.0187-.0645-.0063-.0677-.0458-.4342.152-.959.16-1.339.3144a.7835.7835,0,0,0-.4155.05,3.6079,3.6079,0,0,0-.8184.0958.1622.1622,0,0,1-.1458-.0333c-.1354.052-.2655-.0041-.4165.0479-.3031-.0208-.6133.0021-.9081.0083a4.9717,4.9717,0,0,1-.5382-.052c-.1542-.0125-.2969-.0022-.4269-.023-.0448-.0083-.0865-.0437-.1323-.052-.0281-.0041-.08.0166-.1094.0062a2.9477,2.9477,0,0,0-.5466-.1082c-.1208-.0791-.3155-.0584-.4134-.1646a1.1412,1.1412,0,0,1-.5133-.2062,3.2808,3.2808,0,0,1-.9174-.5539c-.0385.0083-.05-.0166-.08-.0166a.1507.1507,0,0,0-.1552-.1084c.0386-.05-.0364-.04-.0291-.1-.1457-.04-.1916-.21-.3176-.275a5.2724,5.2724,0,0,1-.5-.71c-.0375.0105-.05-.0125-.0666-.0312a4.286,4.286,0,0,1-.4092-.85.1192.1192,0,0,1-.049-.023c.0114-.1187-.1208-.2374-.11-.36-.0022-.023-.0417.002-.049-.0188.0042-.1624-.0948-.175-.0781-.3665.0635.0166.0312-.0958.0447-.1312.0313.0062.0177.0437.049.0083.0218-.0562.0166-.1083.09-.1541-.0343-.0729.1187-.1333.0927-.2458.1229-.0416.0386-.227.1875-.25,0-.0291-.023-.0291-.024-.0562a.0416.0416,0,0,1,.0615-.0105c.0186-.1457.1842-.1894.1145-.3269.1656-.0666.0636-.3061.2259-.3165.0261-.077.0136-.1812.0792-.2291.0021-.0479-.0354-.0458-.0282-.1a.135.135,0,0,1,.0532-.0708c-.025-.16.2291-.4311.2061-.5976.0323-.06.1208-.2812.13-.3041a1.3606,1.3606,0,0,0,.13-.404c-.0135-.0021.06-.0625.06-.0833.0041-.06.0385-.0916.0417-.1521l.0415-.1062.0188-.1208.0948-.3665c-.0084.0021-.0146.0021-.0157-.0062a1.0818,1.0818,0,0,1,.0365-.1416l.0031-.025-.0136-.01.0417-.2708a4.105,4.105,0,0,0,.0781-.629c-.0094-.0623.0115-.231.01-.2893.0011-.0876-.0406-.3916-.0312-.477a.7258.7258,0,0,0-.0417-.2478c-.0333-.21-.0312-.0583-.1145-.2582a.6709.6709,0,0,0-.0323-.1313c.001-.0437-.0625-.05-.0708-.0811.0115-.0625-.0354-.0708-.0656-.1375-.05-.1146-.08-.1833-.1521-.2166-.0041-.0229-.1394-.1791-.1405-.2041-.128-.0853-.127-.0521-.2582-.1333C52.1929.2356,52.19.221,52.1878.2064a1.3389,1.3389,0,0,0-.6186-.0645.1269.1269,0,0,1-.0833.0916c-.03.0063-.0239-.0354-.0646-.0167-.1354.0313-.1957.1167-.3248.1541a4.5978,4.5978,0,0,0-.4572.8163c.0354.0085-.0312.0584-.002.1062-.1.0938-.0718.275-.1552.3812a.0882.0882,0,0,0,.0209.0416,2.1183,2.1183,0,0,0-.1333.527,4.4522,4.4522,0,0,0-.0937.61c-.0053.202-.0531.3436-.0573.529a.7157.7157,0,0,1-.0281.2624c.0437.0541-.0063.1145-.0084.1708-.0208.331-.0135.6747-.0249,1.0225a.0554.0554,0,0,1-.0271.0354,2.7646,2.7646,0,0,1,.0073.6518c.0635.0813.0218.2083.0239.3-.001.1166.0375.2145.0416.329,0,.0042-.0249.0251-.0249.05-.0052.3332.1.7143.1291,1.1142-.1125.152-.1135.3561-.2884.4644-.0459.1438-.1729.2187-.253.3374-.1156.06-.1333.26-.26.3207V8.4387l-.0062.0042-.0146.0083v.0021c-.1552.1228-.607.6372-.6946.5706-.0583.0187-.2436.1729-.4165-.1458a3.9858,3.9858,0,0,1-.2905-.6435c-.025-.2957-.0667-.5539-.077-.858a.5324.5324,0,0,0-.0573-.1936,2.8023,2.8023,0,0,0,.1-.554.3729.3729,0,0,0,.02-.15l.0166-.1208s.0125-.2623.0073-.2623l-.1458-.0354a1.9444,1.9444,0,0,0-.2624.01c-.1041.01-.0542.0042-.1364.0125l-.23.0126a.4236.4236,0,0,1-.21.05l-.1468.1645-.2676.04-.5175.2-.7893.5082-.4113.2687a1.2481,1.2481,0,0,1-.3581.304l-.3072.29a2.8547,2.8547,0,0,1-.4925.5768c-.1032.252-.6613,1.2558-.5458,1.3016-.1477.6581-.21.7.4239,1.3245.4363.4311,1.1527.0916,1.4151.0063a2.3357,2.3357,0,0,0,.228-.1729,2.6359,2.6359,0,0,0,1.2673-1.0183l-.0022.0562.1261-.3041c.31-.3207.2488-.531.5737-.9018a.4316.4316,0,0,0,.0313-.052.0572.0572,0,0,1,.0062.0166,3.0887,3.0887,0,0,1,.1791.5145,2.9948,2.9948,0,0,0,.6258.8205.8592.8592,0,0,0,.7924.0312c.2843-.1062.7248-.7142.7851-.7372l-.0094-.0437a.392.392,0,0,0,.0813-.11c.1947-.1563.3686-.51.4134-.5041.0687-.0562.0958-.1166.1863-.1291-.027-.0458.075-.1687.1344-.177.0031,0,.0635.075.0968.0271a2.1308,2.1308,0,0,1,.2052.4936,7.7013,7.7013,0,0,0,.82,1.2411c.0917.2228.2146.2125.3052.4144.09-.01.0864.1042.1561.1229.0292.1208.21.1645.301.2624-.0218.0334.0031.0167.0073.0583.051-.0146.0323.0625.0979.0271.001.0188-.0177.0249-.0094.0479a.2265.2265,0,0,1,.1145.0375,3.1207,3.1207,0,0,0,1.1038.6581c-.0115.0062-.03.0062-.0292.0208.225.0959.4415.2021.68.2812.0126-.0563-.0916-.04-.0562-.0667.0594.0146.1219.023.151.0791.0323-.0541.0125.0147.0334.0084.2946-.0105.557.1749.8985.1625.0188.052.149.0249.1073.102.0719-.0542.2187.0437.2572-.0646.0708.0583.1052.0188.2031-.0083.01.0645.08.0541.1207.0812-.0072-.0292.0531-.0167.0751-.0271.1228.05.3186-.0063.4.06a.3006.3006,0,0,0-.1968.052c.0666.0209.177-.0145.2364.0168.0363-.0376-.0438-.0708.0186-.0959.0177.0729.0262-.0166.0616-.0125.0218.0208.0478.0292.054.0667-.0343.0063-.0708.0146-.1051.0208.0791.0563.2322.0167.3478.025.0114-.0334-.0521-.0417-.0094-.06a.4214.4214,0,0,0,.2635-.0354c.06.0333.1374-.0042.177.0417.0874-.0625.2353-.0147.3582-.0208-.0208-.0459.0469-.0313.0541-.0563.0573.0541.2249.027.3.0021a1.1436,1.1436,0,0,0,.5092-.052c-.0052-.0542.0114-.0459-.01-.0876-.0521.0168-.0208.05-.0615.0125-.0187.0126.0053.0563-.0229.0646a1.5044,1.5044,0,0,1-.2332.0146c-.0021-.0209.0167-.025.0094-.048-.1375.0625-.2031.0085-.3332.0917.0551-.1145-.0719-.0187-.0906-.102a.1065.1065,0,0,1,.0635.002c-.0218-.077-.0979-.0374-.1083.0209.0166-.0041.0395,0,.0166.0125-.0468.0125-.0708-.0292-.0666-.0813.05-.0207.126-.0124.2082-.0374-.0166-.0709.0563-.0771.0615-.1333.0239.0792.1333.0354.1915.025-.0041.0916-.1582.0354-.178.0791.0386-.0063.03.0542.07.0479-.0021-.025.101-.0458.1062-.0208-.0208.0312-.0885.0291-.0843.0771.0572-.0105.0948-.0854.1385-.0271.0135-.0354.0072-.0834.0489-.1.0781,0,.2447.0292.3061-.0583-.0166.0563.0531,0,.051.0354-.0406.0416-.0551.0958-.0833.077-.0072.0562.0625.0105.0948.0125-.024-.0957.04-.1333.0781-.1208.0146.0042-.0042.0459.0218.04.0042,0-.0155-.0709.0074-.0605.0135.0562.0988.0313.1416.0022.0052.0228.001.0561.0229.0583,0-.0105,0-.0188.0135-.0188a.0269.0269,0,0,0,.0135-.0041h0c.0489-.0105-.05-.0147-.001-.0271.0573.04.1655-.023.2437-.0479,0-.0251-.0125-.0542.0062-.0625a.3412.3412,0,0,1,.11-.0041c-.0084.0332-.0948.0124-.0687.0728l.0083.0021a.2754.2754,0,0,1,.2342-.0749c-.0092.0166-.0343.0207-.026.052.0209-.0063.0428-.0083.0636-.0125l-.0031-.0041c-.0032-.0417-.0292-.0251-.0074-.06a2.7375,2.7375,0,0,0,.8882-.1541c-.0009-.0208-.0051-.0437.0146-.0479.0094-.0167.0385-.0146.0376-.04.0343.0062.0124.0416-.0168.052.0209.0271.0636.0229.1177.0062a.0745.0745,0,0,1,.0459-.075c.0271-.0207.0666-.0332.0583-.0811a.0461.0461,0,0,1,.0427.0228l.0083-.002c.0208.0188.0489.0271.0552.0625-.0157.0041-.0167.0166-.0292.0249-.0323.0146-.0313-.0166-.0479-.0249-.0072.0083-.0146.0146-.0229.0229a.2411.2411,0,0,1,.0427.1436c.0208-.0291.0635-.0374.103-.052.0011-.0291-.0249-.025-.0363-.0375.16-.0624.3321-.1561.4748-.1978.002.0146.0051.0291.0062.0437a.1578.1578,0,0,0,.1593-.1041c.0406.0687.1229-.0187.175.0271.0166-.0355.0155-.0792.0677-.09.0031.0145-.02.0271.0031.0291.0635-.0624.0729,0,.1832-.0354-.0207-.0541.0521-.0729.0021-.1062-.0906.0125.0218.0792-.0656.0875a.0722.0722,0,0,0-.1114-.0083c.0073-.05-.03-.0416-.0542-.05-.0219.0292.03.0541-.0374.0687-.02-.0208-.0063-.05-.0188-.0812a.212.212,0,0,1-.0375.0292c-.051.0562-.1135.052-.1884.0979,0-.0292-.0105-.0459-.03-.05a.0693.0693,0,0,0-.0167.0146c.001.0166.0312.0249-.0167.0312L61.34,11.448c-.0177.0105-.0344.0146-.0447,0a.2477.2477,0,0,0-.0386.0479c.0062-.0105.0333.0395-.0115.0312-.0072-.0208-.0239-.0208-.0531-.05l.0073-.0062a.0254.0254,0,0,1-.0042-.0187c-.0332.0208.0376.06-.0374.0686.002-.0291-.0073-.0415-.03-.04l.0032.0083c.0208.0375-.08.0583-.0729.0438a.0968.0968,0,0,1,0-.0625.1631.1631,0,0,1-.0739.0021c0-.0042.0062-.0084.0135-.0125-.0239.0041-.026-.0105-.0489-.0417-.0188.0812-.1125.0688-.1937.0666.0146.0354-.0584.0751-.0739.0439.0677-.0271.052-.023.024-.0647.052-.077.2144-.0416.2217-.104.0458-.0271.0167.0457.0646.0186a.3056.3056,0,0,1,.21-.0708c.02-.0415.1312-.0229.1427-.102.0489-.002.05-.0374.1051-.0374-.01.0291-.0458.0562.0083.0625.02-.0376.024-.0834.08-.0938.0323.0208-.0135.05.04.0521a.1284.1284,0,0,0,.0365-.0813c.0312.0417.0541-.01.0822.0292a.0781.0781,0,0,1,.0666-.0875c.04.05-.02.0271-.0031.0917.1114-.0209.1938-.1645.2823-.1145.0135-.0334-.0157-.0688.0509-.0876.0428-.0041.0428.05.0719.0646.0437-.05.1031-.01.151-.0437C62.3266,10.9461,62.3183,10.8649,62.2725,10.8753ZM46.91,7.8411c-.1324.2873-.1125.6018-.3542.708l-.0135.1291c-.0385.225-.228.3312-.3592.4832l.0417.0582a.805.805,0,0,1-.326.3708,9.1015,9.1015,0,0,1-.8163.7039c-.3592.0042-.252.1624-.6987.1249a.4784.4784,0,0,1-.13-.72,3.2711,3.2711,0,0,1,.504-.9913c.3176-.4728,1.0236-.85,1.2245-1.1142A3.0539,3.0539,0,0,1,46.9824,7.06ZM51.086,6.1979c-.0927-.7768-.0208-1.3682-.052-2.0888.02-.0041.0177-.0229.0448-.025a9.0916,9.0916,0,0,1,.0874-1.37c.1343-.1229-.04-.5373.1448-.5768-.0188-.0959.0989-.2563.0281-.2624a1.354,1.354,0,0,1,.2249-.56c-.0031-.025-.0063-.05-.01-.0749a1.3764,1.3764,0,0,1,.4811-.3478c.0468.0146-.0531.2019.03.1686.08.0771.1.2291.1938.2916l.026.1479c.0791.077.0125.3373.0957.3665a.7987.7987,0,0,0-.0093.1958c-.0291.4268.0572.3123-.0084.706.0074.0479.0521.0374.0084.254-.01.0021-.0291.1146-.0416.1166-.0126-.0249.0155.0937-.0313.09-.03.0479.0062.1145-.0218.1874.0083.0125.028.0062.0448.0062-.0032.0146-.0063.0313-.0105.048-.0208.0187-.04.0249-.052.0541.0072.027.0249-.0125.0322.01a.18.18,0,0,0-.0291.16c-.0031.0146-.0073.0312-.0115.0478-.0292.0293-.06.0209-.0969.06-.0072.0354.0282.1207-.06.1333.0416.0416.002.1145.0343.1457-.0395.0021-.0645.0188-.0551.0562.0333.04-.07.1916-.1427.2395.0573.0354.0073.1625.0853.1645-.0322.0271-.0625.0625-.0916.0188-.0666.1312-.128.2624-.1833.4.0459-.023.0334.0291.04.0541a.2947.2947,0,0,0-.0988.0813c.02.0686-.04.1333-.0542.1915-.0074.025-.0688.1854-.102.1874a1.4045,1.4045,0,0,1-.175.3374c-.0542-.002-.0551.0729-.0625.1188C51.1465,5.9688,51.2027,6.1416,51.086,6.1979Zm6.6215,6.0644c-.0031-.0229.025-.0229.0479-.025a.0592.0592,0,0,0-.0031.0312A.0544.0544,0,0,1,57.7075,12.2623Zm.0479.0042a.09.09,0,0,1,.0229-.0251A.0312.0312,0,0,1,57.7554,12.2665Zm.0552-.0813a.1736.1736,0,0,1,.1375-.1041c-.0094.0021-.02-.0084-.0022-.0145.0209.0124.0584.0041.0667.0332C57.9585,12.0957,57.919,12.1644,57.8106,12.1852Zm.8382-.1708c.0573-.0271.04.04.0791.0334C58.7187,12.0832,58.6436,12.0582,58.6488,12.0144Zm.3114.0542c.001-.0374.0364-.0437.0594-.025C59.0154,12.0624,58.9831,12.0624,58.96,12.0686Zm.0749-.0146c-.01-.0313.0177-.0313.0428-.0375A.0459.0459,0,0,1,59.0351,12.054Zm.1219-.16c-.0219-.048.0437-.0312.0719-.0438C59.23,11.8853,59.1944,11.8894,59.157,11.8937Zm.1874.0437c.0021-.0375.0375-.0417.06-.0271C59.4017,11.9333,59.3674,11.9291,59.3444,11.9374Zm.0833-.1062c.0229-.025.0844-.0625.1176-.0375A.13.13,0,0,1,59.4277,11.8312Zm.14.0354c-.0105-.0375.1249-.0771.1207-.0209A.14.14,0,0,0,59.5673,11.8666Zm.2-.1437c.0468-.0083.0989-.0271.0958.0291C59.8182,11.76,59.7714,11.7687,59.7672,11.7229Zm.1874.1833c-.07-.0479-.0927.0249-.1666.0145.0333-.0833.1291-.05.203-.1145,0,.0292.0219.0292.0208.0583C59.9858,11.8728,59.9348,11.8625,59.9546,11.9062Zm.1728-.2624c-.05.0187-.0573-.0167-.0676-.05a.1075.1075,0,0,0,.077,0A.0939.0939,0,0,0,60.1274,11.6438Zm.0157.1665c.002-.0145.0146-.0186.0135-.0332l.0291-.0063C60.1962,11.802,60.168,11.8041,60.1431,11.81Zm.1343-.21-.0312.0061c-.0042-.06-.0219.0084-.048-.0229-.002-.0354.0636-.0166.0875-.0312C60.2941,11.575,60.2753,11.5813,60.2774,11.6Zm.1853.1686c-.0207-.0021-.027-.0229-.0489-.0209.0031-.0228.0365-.0207.0583-.027A.0753.0753,0,0,0,60.4627,11.7687Zm.0208-.0812c-.0364.0042-.0083-.052-.0052-.06.0177.0021.0136.0292.0334.025C60.51,11.6687,60.4825,11.6667,60.4835,11.6875Zm.024-.0666c-.001-.0521.0979-.0833.12-.0354C60.6179,11.6209,60.54,11.6416,60.5075,11.6209Zm.377-.0813.0021.0292a.1706.1706,0,0,1-.03.0042.2569.2569,0,0,1-.0031-.0292C60.8626,11.5417,60.873,11.5417,60.8845,11.54Zm-.17-.002c.0011.0208.0042.0416.0052.06C60.671,11.61,60.6544,11.5376,60.7147,11.5376Z" transform="translate(0 -0.1235)" fill="#fefefe"/><path d="M64.8892,10.2089a2.0214,2.0214,0,0,1-.8081-.1666,2.0647,2.0647,0,0,1-1.0793-1.1059,2.0208,2.0208,0,0,1-.1535-.7975,2.0809,2.0809,0,0,1,1.2745-1.8972,2.0817,2.0817,0,0,1,1.6223.0124,2.0528,2.0528,0,0,1,.6487.4457,2.1177,2.1177,0,0,1,.4306.658A2.0893,2.0893,0,0,1,66.81,8.9572a2.0607,2.0607,0,0,1-1.1069,1.0934,2.003,2.003,0,0,1-.795.1583Zm.0261-3.8735a1.7271,1.7271,0,0,0-.6988.1394,1.888,1.888,0,0,0-.5758.3854,1.7781,1.7781,0,0,0-.3853.5727,1.8954,1.8954,0,0,0-.0114,1.41,1.7708,1.7708,0,0,0,.3717.5769,1.8338,1.8338,0,0,0,.5654.3895,1.739,1.739,0,0,0,.71.1477h0a1.7833,1.7833,0,0,0,.7159-.1374,1.8147,1.8147,0,0,0,.5784-.3873,1.7524,1.7524,0,0,0,.3852-.5706,1.795,1.795,0,0,0,.1416-.7,1.8254,1.8254,0,0,0-.13-.7144,1.7571,1.7571,0,0,0-.9377-.9621,1.7466,1.7466,0,0,0-.7107-.15l-.0187-.0229Zm.6372,2.828L64.9371,8.36l-.4941.0041-.0078.7873-.3541-.0022.0182-2.1367.9592.0084a1.1247,1.1247,0,0,1,.3648.0624.7206.7206,0,0,1,.27.1687.5751.5751,0,0,1,.127.1833.5582.5582,0,0,1,.0432.2416.5743.5743,0,0,1-.1614.4311.8138.8138,0,0,1-.368.202l.6491.856Zm-.53-1.1162a.6045.6045,0,0,0,.3446-.09.3263.3263,0,0,0,.0141-.5122.5328.5328,0,0,0-.3369-.0979l-.5919-.0042-.0053.6977Z" transform="translate(0 -0.1235)" fill="#fefefe"/><path d="M64.9178,6.1062h.0193a2.0829,2.0829,0,0,1,.7986.1667,1.985,1.985,0,0,1,.64.4436,2.059,2.059,0,0,1,.428.6476,1.9914,1.9914,0,0,1,.151.7893v.01a1.959,1.959,0,0,1-.1667.7851A2.0315,2.0315,0,0,1,65.6941,10.03a1.9927,1.9927,0,0,1-.7857.1582h-.0192a2.0256,2.0256,0,0,1-1.8654-1.26,1.9633,1.9633,0,0,1-.152-.7872v-.01a2.0007,2.0007,0,0,1,.1639-.7872A2.0937,2.0937,0,0,1,63.4768,6.7a2.125,2.125,0,0,1,.6538-.4374,2.0011,2.0011,0,0,1,.7872-.1562M64.91,9.98a1.7446,1.7446,0,0,0,.706-.1395,1.8472,1.8472,0,0,0,.5852-.3915,1.7653,1.7653,0,0,0,.3889-.5769,1.8033,1.8033,0,0,0,.1458-.71v-.01a1.8366,1.8366,0,0,0-.5087-1.2932,1.794,1.794,0,0,0-.5732-.3936,1.7593,1.7593,0,0,0-.72-.152h-.0187a1.7634,1.7634,0,0,0-.7076.1416,1.8143,1.8143,0,0,0-.5826.3915,1.7775,1.7775,0,0,0-.3905.5768,1.8485,1.8485,0,0,0-.1442.7081V8.143a1.7907,1.7907,0,0,0,.1328.708,1.7156,1.7156,0,0,0,.3759.5832,1.8378,1.8378,0,0,0,.5732.3957,1.7528,1.7528,0,0,0,.7179.15h.02m-.7872-2.9447.9341.0083a1.0679,1.0679,0,0,1,.3576.06.733.733,0,0,1,.2614.1646.5331.5331,0,0,1,.1223.1748.5605.5605,0,0,1,.0427.2333v.01a.55.55,0,0,1-.1546.4061.795.795,0,0,1-.3916.2041l.6415.8455-.3837-.0041-.5957-.7935h-.0119l-.5243-.0042-.0078.7872-.3082-.002.0182-2.0909m.91,1.033a.63.63,0,0,0,.3473-.09.3187.3187,0,0,0,.14-.277V7.691a.3138.3138,0,0,0-.1244-.2644.563.563,0,0,0-.3515-.102L64.43,7.32l-.0067.7435.5971.0042h.0119m-.1145-2.0076a2.0769,2.0769,0,0,0-.8038.1582,2.1385,2.1385,0,0,0-1.12,1.108,2.1136,2.1136,0,0,0-.0136,1.618,2.0586,2.0586,0,0,0,1.0918,1.1163,2.0651,2.0651,0,0,0,.8169.1729h.0192a2.0878,2.0878,0,0,0,.8039-.16,2.1543,2.1543,0,0,0,.6685-.4477A2.0713,2.0713,0,0,0,67,8.1638a2.0363,2.0363,0,0,0-.1552-.8163,2.11,2.11,0,0,0-.4353-.6623,2.0544,2.0544,0,0,0-1.4723-.6247ZM64.91,9.9361h-.0187a1.7472,1.7472,0,0,1-.6992-.1458,1.8045,1.8045,0,0,1-.56-.3874,1.7952,1.7952,0,0,1-.4967-1.26,1.8089,1.8089,0,0,1,.1416-.7018,1.7357,1.7357,0,0,1,.38-.5644,1.7882,1.7882,0,0,1,.5685-.3811,1.7146,1.7146,0,0,1,.6894-.1375h.0187a1.71,1.71,0,0,1,.7018.1479,1.8254,1.8254,0,0,1,.5581.3832A1.8384,1.8384,0,0,1,66.55,8.851a1.7648,1.7648,0,0,1-.3811.5644,1.8,1.8,0,0,1-.5712.3812,1.68,1.68,0,0,1-.6878.1395Zm-.8325-2.9469-.0015.0459L64.0593,9.126l-.0015.0458h.0457l.3093.0021h.0459L64.46,9.128l.0069-.7413.467.0041.5826.7768.013.0188h.0234l.3837.002H66.03l-.0572-.075-.6-.7914a.825.825,0,0,0,.3446-.1978.5868.5868,0,0,0,.1692-.4373.623.623,0,0,0-.0458-.26.547.547,0,0,0-.1337-.1895.752.752,0,0,0-.2745-.175,1.0828,1.0828,0,0,0-.3742-.0645l-.9357-.0084ZM64.47,8.0181l.0052-.654.5685.0063a.5169.5169,0,0,1,.3228.0937.2625.2625,0,0,1,.1089.2269.2794.2794,0,0,1-.1219.2479.5658.5658,0,0,1-.3213.0833v.0459L65.02,8.0222l-.55-.0041Z" transform="translate(0 -0.1235)" fill="#fefefe"/></svg>