<svg id="Ebene_1" data-name="Ebene 1" xmlns="http://www.w3.org/2000/svg" viewBox="0 0 193.4346 89.602"><title>partner</title><path d="M101.7217,36.2729a2.66,2.66,0,0,0-.3578-.4416.5375.5375,0,0,1-.2579-.233,3.8371,3.8371,0,0,1-.3731-.1649c-.18-.0681.2582-.0216.1649-.0745-.5115-.283-.9763-1.4083-1.2669-2.99.0356.05-.1634-2.1825-.1538-2.4095a13.83,13.83,0,0,1,.1149-2.7914,13.1308,13.1308,0,0,0,.18-1.7846c.0809-.6093.1633-.5068.311-1.7843.0436-.1.0716-.3234.1245-.4259a1.2824,1.2824,0,0,0-.1337-.6313c.062-.1181-.3639-.4163-.5256-.6557A7.2276,7.2276,0,0,0,97.8,21.6652c-.0977.09-.2674-.022-.3171.0028-.2534.0624-.3931.1028-.3931.1028-.2518.1306-.4075.1739-.6577.3047-.12.121-.7458.7459-.8595.8671-.9232,1.1161.2706-.056-.1353.4136-.3154.3234-.85.9355-1.4159,1.5884-.2471.2862-.1926.3824-.4368.6622-.19.2177-.3931.6188-.5657.8146A6.7321,6.7321,0,0,1,91.6025,27.64a13.4828,13.4828,0,0,0-.8455,1.2838c-.199.2238-.3543.3514-.544.5784-.0621.2082-.6326.6373-1.1021,1.402a1.0345,1.0345,0,0,1-.1662.2766c-.04,0-.1337.1213-.1789.1213-.0045-.1866-.0016.006.0328-.1929a4.14,4.14,0,0,1,.1646-1.0009c0-.1-.0529-.4135-.0465-.51.3747-.858.0869-.8516.3234-1.7346-.1184.261.1041-.5441.1118-.5473a5.7353,5.7353,0,0,0,.3218-1.259,4.9774,4.9774,0,0,0,.3062-1.7034c-.0372-.4631-.25-.2581-.25-.2581a.0435.0435,0,0,0,.0045-.0217c.0048,0,.0048-.0092.0048-.0092h0s-.2194-.4355-1.2142-.2241a2.8334,2.8334,0,0,0-1.251.1369,2.92,2.92,0,0,0-.5953.2237c-.1181.0965-.454.4852-.5721.5753-.0652.0684-.13.14-.1929.205-.0745.078-.1445.1556-.219.2333-.0792.1025-.2658.516-.3342.6093-.18.2178-.3512.4352-.5237.65-.3842.46-.4.41-.7634.8519a1.5062,1.5062,0,0,0-.2734.4444c-.0824.1649-.1585.3014-.23.4323a7.6864,7.6864,0,0,1-.7646.771c-.1057.404-1.6569,1.3055-1.7037,1.6846.0808-.2983-1.4376,1.4768-1.94,1.6321.0079.0064-2.6129,1.9587-4.0336,2.2137A3.4835,3.4835,0,0,1,72.05,34.38c-.2629-.2922-.45-.2766-.5612-.4539.0372.0248-.2021-.233-.1649-.2146-1.1285-.9976-.5813-2.1013-.2687-2.8226a1.0113,1.0113,0,0,1,.0481-.2518c.2674-.0561.5736-.1866,1.1377-.3451.1866-.0465.488.0248.7134-.0341.0949-.028.2658-.0468.5488-.1337.3871-.1152,1.026-.4415,1.1441-.4727.199-.0621.3062-.0248.4988-.0777a6.8267,6.8267,0,0,0,.8131-.345,10.1147,10.1147,0,0,0,1.1717-.4817c.2178-.1028.2022-.1741.4075-.283.241-.1273.6946-.283.9076-.4011.1057-.0528.3295-.2642.4291-.32.1553-.0962.18-.0309.3342-.1274.1366-.0872.49-.2177.6249-.3138a9.9029,9.9029,0,0,0,1.1982-1.1441,11.6028,11.6028,0,0,0,1.5048-2.1017,4.6337,4.6337,0,0,0,.6217-1.6693,2.0032,2.0032,0,0,0-.6573-1.8155,2.855,2.855,0,0,0-2.0784-.6061,12.7434,12.7434,0,0,0-5.0765,1.9244,15.2258,15.2258,0,0,0-3.6513,3.0776A13.9258,13.9258,0,0,0,68.38,30.09c-.0357.9576-.6278,2.6954.1492,3.9888a1.6957,1.6957,0,0,0,.0389.5469c.3014.4259.74.9079,1.13,1.3494a.5872.5872,0,0,1-.0685.0028,5.846,5.846,0,0,0,2.243.998c-.02.0124-.0356.022-.0544.0312a4.8006,4.8006,0,0,0,1.088.1554c-.06.0124-.1289.028-.1929.04A12.0317,12.0317,0,0,0,76.62,36.59c.1229-.0652.2442-.1241.3651-.1894,2.3255-.6125,2.0581-1.3679,3.7678-2.1981.0032.0188.2194-.1833.2286-.1741.9776-1.2527,1.9183-1.5481,2.8615-2.4836.022.006.0436.0124.0684.0216a2.877,2.877,0,0,0,.6717-.6465c.1337-.2085.2671-.4228.41-.64h0c.13-.1617.3434-.41.5765-.69.0327-.0372.1445-.3543.182-.3915a2.3738,2.3738,0,0,1,.5517-.7806,2.606,2.606,0,0,1-.112,1.309A11.0248,11.0248,0,0,1,86.1373,31.2c.0452.2018-.13,1.0973-.0681,1.29.0793.1929-.084.345,0,.5379.0557.0933.2066.37.2547.4664a1.8681,1.8681,0,0,0,.2489.2859c.0961.056.1181.1649.219.2269.1165.0341.247.2178.3655.2582.1489.0153.32.1646.4692.177a1.7657,1.7657,0,0,0,.42.0592c.1334-.0095.2578-.0188.3852-.028.0127.0372.0748,0,.2241-.0716a.805.805,0,0,0,.1225-.0061c.0124.0465.1153-.04.4119-.1556.0669-.04.2178-.143.2862-.1863.028-.0312.2579-.1989.2938-.2365.0233-.0961.1258-.0745.1926-.1958.0545-.1117.14-.1337.2487-.28.0544-.0776.2161-.1865.2753-.2674.0946-.0808.4756-.6341.5689-.7054.2114-.3546,1.1021-1.0012,1.2061-1.3182.2207-.2859,2.0609-2.661,2.3-2.95a5.1874,5.1874,0,0,0,.9576-1.15,8.1591,8.1591,0,0,0,.9668-1.0352c.056-.0745.2814-.7118.3574-.8175.0777-.1089.0064.3171.1121.1646a8.7915,8.7915,0,0,0-.3639,3.2021,3.9685,3.9685,0,0,1,.022,1.3491c-.0064.028.05.9264.0528.9824-.0095.65.0093.4259.4072,2.0424a6.6648,6.6648,0,0,0,2.1822,3.8146,2.2127,2.2127,0,0,0,1.4735.659,1.2009,1.2009,0,0,0,.6966-.1369c.0356-.0156-.1493-.0248-.1121-.05.13-.1057.1477,0,.2738-.1213.0248-.028.0152-.1617.0417-.1865.0328-.0436.2005-.0965.2285-.1369.01-.0153-.0652-.1738-.06-.1862.0448-.0656.0264.0745.0884.0528C102.0276,36.4874,101.7245,36.3133,101.7217,36.2729ZM72.8959,26.9966c.7182-.7277,2.1125-1.9679,2.1093-1.9679.64-.7058.5813-.6622,1.8823-1.2466.1353-.09.2674-.1741.4011-.2611.1289-.0528.261-.1088.3931-.1585-.0528-.056.1866-.056.3388-.1837.27.0344.2129-.1489.7805-.4475.4816-.1181,1.0476-.5845,1.5761-.51.1461.05.432.3979.05,1.1906a6.56,6.56,0,0,1-1.1781,1.5293c-.3047.283-.6281.594-.9264.883-.2737.3107-.9327.4508-1.53.8019-.4835.2769-1.1316.4664-1.6228.6933a9.8267,9.8267,0,0,1-1.2995.482,3.87,3.87,0,0,1-1.1205.4071C72.7574,27.68,72.1265,27.83,72.8959,26.9966Z" transform="translate(-2.2827 -2.199)" fill="#fefefe" fill-rule="evenodd"/><path d="M112.885,34.1744a29.2448,29.2448,0,0,0,4.4735-3.4724,2.4585,2.4585,0,0,0,.4008-.3107,1.7655,1.7655,0,0,0,.2241-.3855l.603-.6373c.06-.0652-.0885-.0372.2005-.2954l.0248-.2642c.0981-.0872.2038-.1773.3126-.2706a2.497,2.497,0,0,0-.1324.5908c-.02.171-.0388.3419-.0605.51a2.08,2.08,0,0,1-.084.6809,7.7483,7.7483,0,0,0,.2238,1.8747,3.1379,3.1379,0,0,0,.23.6217,3.5814,3.5814,0,0,1,.1617.9171,7.4189,7.4189,0,0,0,.55,1.0756c.2146.3076.3515.603.5721.9232.2021.18.2782.2954.4819.482.1261.0433.3047.1585.4352.2082.1725.05.5784-.1213.7554-.0777.1213-.0872.2378-.18.3607-.2738.0716-.1181.1461-.2362.2206-.3543a8.6241,8.6241,0,0,0-.5036-1.3647c-.1366-.2238-.2735-.4415-.41-.6589-.0668-.1773-.1273-.3607-.1926-.538-.0652-.233-.1289-.4508-.1941-.6806-.0656-.3142-.1277-.622-.1914-.9327a3.9584,3.9584,0,0,1-.0372-1.2342c0-.1866.006-.37.0124-.5533a21.145,21.145,0,0,1,.4244-3.6,3.8474,3.8474,0,0,0,.2161-.5813c-.0484.0993-.0872.084-.0592.0032.1662-.5316-.0312-.022.1041-.5472a4.0475,4.0475,0,0,1,.325-.9888c.0869-.2238.2687-.65.2687-.65.0732-.0713.0764-.0557.1244-.4256-.0792-.3979-1.506-.5784-2.092-.1245-.0764.0561-.1525.115-.2318.171-.1493.1305-.2983.2642-.4492.3887-.1228.27-.1661.2922-.2066.3855-.0592.1273-.1432.2642-.2161.4163-.3343.5161.0264.4011-.1509.6966-.2206.3635-.4383.7242-.65,1.0848-.0248.04-.0669.1181-.11.2022l-.7041.8423a12.3827,12.3827,0,0,1-1.4316,1.2342c.0745-.0156-.6468.5752-.7445.6965-.2362.2018-.7338.6277-.92.7614l-1.6726,1.2622a9.4425,9.4425,0,0,1-1.4175.9576l-.6838.4291a4.8158,4.8158,0,0,1-2.58.8764,1.4517,1.4517,0,0,1-1.1269-.5937,6.0131,6.0131,0,0,1-.418-.6682c-.1773-.4259-.1152.0341-.2177-.4727-.5316-.51.9607-3.8859,1.6569-4.4484a10.9475,10.9475,0,0,1,.8735-1.2126l-.0156.05a19.5548,19.5548,0,0,1,2.7157-2.5645l-.0668.0341c.3371-.3295.3482-.1958.6573-.37-.0885-.0653.2238-.3295.3531-.4136l.0028.0281a7.16,7.16,0,0,1,.9576-.6281l.0048.0624a2.3129,2.3129,0,0,1,.69-.4167c.0573-.0124.1881-.0436.3-.0621.0079.0185-.0156.0621-.02.1741.2751-.0156.028.2114-.0156.2674a1.22,1.22,0,0,0-.1633.73s.1525.2645.26.4167c.1381.19.4988.3451.6589.255.143.05.2814.0589.35-.0124a1.3523,1.3523,0,0,0,.4428-.0249,3.1069,3.1069,0,0,0,.5828-.8426c.1554-.2954.0421-.41.0873-.37,0,0,.1489-.0592.2362-.3667.0869-.47-.1089-.0653-.0561-.7494.157-.4539-.6713-1.3707-.9823-1.542a1.9975,1.9975,0,0,0-1.2234-.2983,2.8541,2.8541,0,0,0-.36-.0063,5.4443,5.4443,0,0,0-1.4876.3234,11.2607,11.2607,0,0,0-2.3038,1.16,9.6574,9.6574,0,0,0-1.147.8487.3916.3916,0,0,1-.21.0652c.0448-.0375-1.8483,1.7782-1.8547,1.8215l.0453.0933c-.3311.3639-.1758.0312-.468.3887-.0169.227-.5533.6341-.7306.8643-.0917.1521-.1337.1926-.2082.317-.0156.056.0452-.0124.0873-.0312l-.18.2738c-.1009.0869-.1538.0869-.0777-.0312-.6249.5128-2.6485,4.4019-2.3735,5.8971-.0605.255.0993.6157.0312.9015l.0885.078-.0172.1738a8.2587,8.2587,0,0,0,.6389,1.5016,5.68,5.68,0,0,0,1.0476.9483c-.0464-.0312-.1305-.1524.014-.0748-.0172.0748.3932.199.4212.3079.1261.0872.5937.339.4743.168.07.0777.5237.2671.2314.2019a1.8278,1.8278,0,0,0,.4292.1432,3.7415,3.7415,0,0,0,.8935.13.4363.4363,0,0,1,.2766.0809,2.8549,2.8549,0,0,0,.6081-.0312c.006.006.8-.0965.8-.0965A12.0263,12.0263,0,0,0,112.885,34.1744Z" transform="translate(-2.2827 -2.199)" fill="#fefefe" fill-rule="evenodd"/><path d="M125.1348,20.7541c-.0232-.41.2457-.5068.2177-.7958-.0232-.376-.6045-.3668-.58-.8643-.2366-.05-.2846-.3107-.4508-.432-.1229-.0809-.3763,0-.3575-.2082-.3266-.0344-.4075-.0964-.6889-.1213-.6185-.0436-1.6009.0809-1.9272.6154.0172.1741-.0636.2269.0389.3046-.1277.0468-.1678.199-.199.3546.0621.18.1881.2114.0685.4817.32.1617.1337.771.6806.8206-.0061.1121-.0793.09-.0093.1774.1414.062.2394.0092.4027-.0125.4524.6217,1.5341-.1429,2.2863.1245C124.8225,21.0868,124.897,20.8289,125.1348,20.7541Z" transform="translate(-2.2827 -2.199)" fill="#fefefe" fill-rule="evenodd"/><path d="M66.5012,21.23c.269.2489,1.3182-.5721,1.5621-.65a5.1428,5.1428,0,0,0,1.08-2.2819c.0917-.2393-.1557-.5376-.1012-.8486-.2206-.1305-.2146-.5316-.6806-.4664-.0933-.3884-.6825.056-1-.1334-.2177.1894-.572.1586-.62.233a4.85,4.85,0,0,0-1.068.7771c-.0513.056-.0544.1585-.1149.2209-.0264.0217-.1261-.0188-.1509.0061a.67.67,0,0,0-.0605.1276c-.2114.2579-.5689.5689-.7786.8019a4.1049,4.1049,0,0,0-.28.311,5.2514,5.2514,0,0,0-.3033.4788c-.1258.1894-.3231.3855-.4521.5749-.2021.2954-.3934.5845-.5316.793-.1028.1461-.0624.2394-.1385.3852-.084.1524-.2533.28-.35.4415-.0309.0624,0,.1461-.0217.2114-.0232.0652-.1429.1244-.1677.1741-.3171.6809-.4632,1.3742-.8083,1.9584.1306.0188-.05.2706-.1.46-.056.2238-.006.3635-.1493.4383.1837.1242-.1678.4817-.0293.7242a.2686.2686,0,0,0-.02.0529,9.3318,9.3318,0,0,0-1.0444,1.3523,51.85,51.85,0,0,1-4.8342,3.4755c-.9232.4352-1.6754.9047-2.5413,1.3367-.4788.2334-1.0072.4788-1.5388.6809h0c-.1165.0436-.2162.0809-.3123.1181-.1557.0436-.2922.0809-.4415.1181-.1213.0312-.2486.0624-.3964.1029-1.8606.522-4.6865,1.4732-6.8206,1.2526-.2674-.1461-.628-.2177-.9015-.3667-.0064-.0624-.056-.0841-.03-.1741-.289.0588-.5408-.4852-.5985-.8083a3.5618,3.5618,0,0,1,1.1986-2.6737c.771.0344,1.16-.4756,1.7858-.4568a16.215,16.215,0,0,1,1.988-.7181c.1057-.0621.14-.14.2738-.0933,1.2233-.454,2.2582-.9015,3.1505-1.1906-.0032-.0716,2.8991-1.3494,3.2766-1.5856,1.3135-.4756,2.4452-1.2622,3.6077-1.7626-.0016-.0249.13-.1617.1369-.0436-.3919.4135.5036-.05,1.147-.7707.3438-.3887.8362-.9111.8782-1.2718.0328-.267-.2-.494.0249-.749-.1974-.09-.1678-.3887-.2563-.5781a6.2312,6.2312,0,0,0-1.7846-1.4363,3.4662,3.4662,0,0,0-1.0941-.2394c-.2085.0032-.4215.1241-.6373.1273a13.9376,13.9376,0,0,0-6.8518,2.0673c-.0993.1181-.0557.1681-.1117.2674a4.7491,4.7491,0,0,0-1.6025.8518,28.1092,28.1092,0,0,0-2.9223,2.08,20.3081,20.3081,0,0,0-3.2954,3.6589,5.5974,5.5974,0,0,1-.659.3483c.12-.0248.1617.0188.1229.1337a14.4477,14.4477,0,0,0-2.2742.41c-.2922.426-1.1625.1586-1.3863.5068-.5116.0589-3.6886.93-3.8875.9576-.2658.0713-5.9127,1.4111-6.0824,1.4175a21.4636,21.4636,0,0,1-3.466.7026,15.691,15.691,0,0,1-2.3146.41,29.7769,29.7769,0,0,0-5.1774.8547c-.1449-.233-.3871.0685-.5908.078-.1134-.18-1.8839.0621-1.6742.199-.2129-.1681-.1257.2174-.359.0372.0124-.0684.1168-.0343.1041-.1337a1.0166,1.0166,0,0,0-.5578.2175c.0169-.0621.0793-.0745.0978-.1306-3.23.2986-7.3475.3451-9.6589-1.3739-.1009-.0216-.0977.0777-.2222.04-.0917-.0372-.1213-.1368-.255-.1368-.3963.6312.1136.9607.2766,1.3306-.1429.028-.1349-.0841-.2238-.0032-.0512.4135.4912.47.33.7494a11.13,11.13,0,0,0,6.4584,1.6785.2156.2156,0,0,0,.0264.18,13.2926,13.2926,0,0,1,1.89-.0961,4.8967,4.8967,0,0,0,2.1573-.199c.07.2082,1.0928-.2209,1.4971-.1961-.028.0376-.1168.1589.0309.1309a7.3,7.3,0,0,1,1.8094-.193c.1337.0965,1.7066-.0464,1.4067-.2021.3107-.0713.4616-.0153.6822-.1646-.1257.0061,1.536-.3855,1.3991-.1585a2.8375,2.8375,0,0,0,.55-.1277,14.6706,14.6706,0,0,1,2.9767-.3138c-.1244-.2394.6809-.2767.3731-.13.2518-.0653,2.0393-.2923,2.0081-.4508.3218-.05,2.1092-.2986,2.1748-.283.0961-.0529,1.7594-.6249,1.75-.59a13.969,13.969,0,0,1,2.9188-.6217l1.1381-.1617c-.1789.006,2.5008-.8487,2.4683-.6249a1.5,1.5,0,0,0,.5065-.1742c-.0124-.1056,1.8326-.628,1.7877-.4539.199-.0124.3123-.1117.5036-.13a2.8582,2.8582,0,0,0,.2811,1.775c-.006.0872-.1273.0529-.1069.1681A7.149,7.149,0,0,0,41.31,36.5062c1.4875.9419,3.9591.7242,5.807.4788a30.3255,30.3255,0,0,0,4.6073-1.4427h.0031c.67-.2579,1.346-.6249,1.9989-.8051a22.3458,22.3458,0,0,1,2.8322-1.598,44.0421,44.0421,0,0,0,3.83-3.1614,3.37,3.37,0,0,0,.6886-.5472v.2206a10.4063,10.4063,0,0,0,.3094,1.4395c-.0436.23.0557.41.1506.4164a.276.276,0,0,0-.0745.2209c.2346.9544.6714,1.7563.9123,2.7138a1.0536,1.0536,0,0,0,.1742.1585c-.0389.1369.0745.1462.014.2986a2.631,2.631,0,0,1,.33.5721c.04.1181.0108.261.048.3823.1337.3823.3671.74.5176,1.1253a7.4161,7.4161,0,0,1,.3343,1.7658,4.2491,4.2491,0,0,1,.0933.4568c-.0061.2894-.1586.5721-.199.9015-.0124.0624.0436.1433.0248.2178a5.864,5.864,0,0,1-.3791.7337c-.028.0653.014.1554-.0248.2114a8.0369,8.0369,0,0,1-1.0757,1.287,6.7,6.7,0,0,0-.8706.8019,11.3125,11.3125,0,0,1-1.8839,1.0632c-.2735.1089-.637.2706-.92.3483-.2986.0684-.6281.0156-.9375.0809-.1194.0248-.1942.0964-.3046.0993-.2811.0188-.6574-.199-.8952.1305-.1493-.2142-.48-.0745-.7646-.1366.0016-.0372.0108-.0872.0152-.1213-.2518.0621-.2346-.1-.44-.0684-.112.3419.2114.3139.1818.5877.1493-.0064.18.0744.2782.1117-.11.317.4228.1961.241.4571a6.299,6.299,0,0,0,.8222.0869c-.0171.1525.0745.2209.1618.2922a2.35,2.35,0,0,1,.777.0405c-.1537.1958.07.0344.13.1681-.1989.0713-.4912-.0281-.6962.1209.0793.1586.5657.2085,1.05.1586.1137-.0061.249-.1025.3575-.0994.17,0,.2582.1121.3811.1089.43-.0156.7694-.3171,1.1113-.3142.0592.1585-.171.0376-.1617.14.154.006.2161-.0872.3963-.0621.0544-.1493.538-.311.4663-.19a2.4325,2.4325,0,0,0,.8347-.0809,2.981,2.981,0,0,0,1.1893-.6093,2.9461,2.9461,0,0,0,.5345-.37c.1073-.0808.2254-.1525.3234-.227a10.2628,10.2628,0,0,0,1.6866-1.5636,2.09,2.09,0,0,1,.494-.8331c.008-.1.0156-.1989.0328-.2986.2206-.1149.1385-.289.1942-.4259.0312-.0777.1477-.1242.1681-.18a.2751.2751,0,0,1-.0265-.1709,9.9558,9.9558,0,0,0,.4989-1.85,9.2227,9.2227,0,0,0-.2331-1.8062c-.0031-.0216.0714-.0993.0621-.13-.0108-.0713-.112-.1273-.1213-.2082a3.7374,3.7374,0,0,0-.3979-1.2186c-.1493-.2986-.1942-.5408-.3046-.7866-.0761-.1833-.0917-.3915-.1726-.5876-.0745-.171-.2425-.3231-.2906-.4912-.014-.0529.0328-.1242.02-.1678-.1274-.3358-.3575-.6249-.4772-.9543-.0885-.2487-.1414-.5068-.2175-.6746a6.15,6.15,0,0,1-.4787-1.84,4.4972,4.4972,0,0,1-.3607-1.5108,8.3716,8.3716,0,0,1-.0185-1.57,10.7584,10.7584,0,0,1,.2547-1.8343,18.49,18.49,0,0,1,1.5264-3.516c.0732-.14.2378-.2145.2954-.4755a1.4465,1.4465,0,0,1,.311-.631C66.6053,20.6764,66.1437,21.4318,66.5012,21.23ZM45.6386,26.6359a21.3916,21.3916,0,0,1,3.2282-2.4683L49.21,23.77c.1509-.0592.8891-.2738,1.1084-.3824a8.6865,8.6865,0,0,1,2.4171-.9823,1.7342,1.7342,0,0,1,1.245-.3639c.5953-.3823,1.3616-.1305,2.0969.0156A31.75,31.75,0,0,1,49.7483,25.79c-.3219.121-2.5632,1.0445-3.4648,1.2559C45.6306,27.1892,45.1987,26.9715,45.6386,26.6359Z" transform="translate(-2.2827 -2.199)" fill="#fefefe" fill-rule="evenodd"/><path d="M182.6058,34.9238c.0127.0716.0236.1493.0392.2206-.1261-.0869-.1821.0528-.33.0624.0124-.1153.1681-.1337.1044-.2955-.0685-.0528-.23.0249-.2534-.0932.191-.13.1041-.0592.3295-.0592.0124-.0777.1337-.0685.0668-.205-.1913-.0873-.5036.28-.7509.1025.0932-.0312.0792-.1369.1181-.205a1.1719,1.1719,0,0,0-.8143.2951c-.1929-.1182-.4616.0124-.6529.168.1477-.0528.1244.1181.2906.0341.0328-.0809.1385-.1213.2114-.1741.0388.1149.2114.0436.2626.1337a2.97,2.97,0,0,1-.7847.1929c.0077-.0624.0449-.0809-.0264-.1309a1.2828,1.2828,0,0,1-.5644.0561c.0576-.0156.1369-.0124.1369-.0621-.21.0032-.2054.0621-.2194.1273a1.2032,1.2032,0,0,0-.8611.3546c-.0264-.09.0561-.1028.0749-.1524a1.3759,1.3759,0,0,0-.723.32c-.0621-.0592-.191-.0156-.2037-.1429-1.3179.4632-2.916.488-4.0725.9572a2.3017,2.3017,0,0,0-1.265.1525,11.1834,11.1834,0,0,0-2.4932.289.4974.4974,0,0,1-.4463-.0993c-.41.1522-.8067-.0156-1.2651.1429-.9219-.0652-1.8683.0093-2.7637.0281-.5657,0-1.105-.1121-1.64-.1586-.4663-.0372-.9031-.01-1.301-.0716-.1321-.0216-.261-.1337-.3995-.1553-.0841-.0125-.247.0528-.3327.0156a8.8712,8.8712,0,0,0-1.6617-.3267c-.3651-.2393-.9636-.1769-1.2606-.5036a3.2987,3.2987,0,0,1-1.56-.6341,9.953,9.953,0,0,1-2.7962-1.6786c-.1136.0249-.1477-.05-.2378-.05a.4606.4606,0,0,0-.4756-.3295c.1149-.1493-.1089-.1181-.084-.3047-.4492-.1241-.5877-.64-.97-.8394a15.3147,15.3147,0,0,1-1.5216-2.1605c-.1165.0312-.1554-.04-.2069-.0933a13.3443,13.3443,0,0,1-1.2434-2.5893.271.271,0,0,1-.1493-.0685c.0359-.3575-.3668-.7245-.3372-1.0944-.0063-.0684-.1244,0-.1413-.0589.0045-.4944-.2938-.5284-.2426-1.1161.1974.05.0917-.289.1353-.3947.0949.0248.0529.1337.1506.0248.0637-.1681.0484-.3326.2738-.4727-.1041-.2238.36-.41.28-.749.3743-.1213.1181-.687.5672-.7554,0-.09-.0652-.09-.0668-.1742a.1215.1215,0,0,1,.1834-.0312c.056-.4412.5628-.5749.3466-.9948.5084-.2018.199-.93.69-.9667.0792-.2331.0388-.5441.2394-.69.0092-.1493-.1025-.1429-.0841-.3046a.3945.3945,0,0,1,.1617-.2206c-.0776-.4852.6978-1.3087.6294-1.8219.098-.18.3654-.8518.3934-.9171a4.0666,4.0666,0,0,0,.3948-1.231c-.0357-.0092.1849-.19.1881-.2578.0108-.1837.1165-.2738.1245-.46l.1305-.3263.0557-.37.2862-1.1069c-.0249.0032-.0436.0032-.0513-.0248a3.956,3.956,0,0,1,.12-.432l.0045-.0716-.0417-.0312.1273-.83a11.7728,11.7728,0,0,0,.2346-1.9056c-.0232-.1929.0389-.7057.0328-.8891.0061-.2674-.12-1.1845-.0949-1.4455a2.258,2.258,0,0,0-.1228-.7554c-.1041-.6437-.0965-.1773-.3483-.7866a3.1138,3.1138,0,0,0-.0961-.4011c0-.1369-.1961-.1493-.2209-.2426.04-.1926-.1086-.2174-.1974-.4227-.1522-.3451-.247-.5565-.4648-.6526-.0124-.0716-.418-.5472-.43-.6249-.3855-.2614-.3855-.1557-.7834-.4075-.0048-.0433-.0108-.0869-.0188-.1337a4.0295,4.0295,0,0,0-1.8807-.1894.3871.3871,0,0,1-.2566.2735c-.0869.0156-.0684-.1089-.1941-.05-.4152.09-.5953.3543-.99.4664a13.367,13.367,0,0,0-1.3882,2.4836c.1073.0251-.0977.1805-.0092.33-.3095.2795-.2207.8331-.47,1.1533a.2.2,0,0,0,.064.1273,6.23,6.23,0,0,0-.4075,1.6073,14.3811,14.3811,0,0,0-.2858,1.8559c-.0172.6157-.1618,1.0508-.1758,1.6041a2.3182,2.3182,0,0,1-.0808.8022c.1321.1677-.0217.3479-.03.5189-.0637,1.01-.0417,2.058-.0745,3.112-.0048.0528-.0465.0809-.0809.1117a8.5456,8.5456,0,0,1,.0188,1.9836c.1926.2454.0685.6373.0729.9139-.0044.3511.1121.6529.1289.9948-.0028.0185-.0776.0809-.0745.1522-.0155,1.02.3,2.1732.39,3.3979-.3435.46-.3514,1.082-.8783,1.4115-.14.4287-.53.6589-.7646,1.0256-.3546.1837-.4119.79-.7974.9764v-.0064a.0986.0986,0,0,1-.0188.0156.2418.2418,0,0,0-.0452.0219l.0032.0093c-.4724.37-1.8543,1.9428-2.1169,1.7285-.1774.0621-.74.5285-1.2654-.4383a11.6424,11.6424,0,0,1-.8828-1.9619c-.0776-.8952-.2069-1.6846-.2378-2.6113a1.5164,1.5164,0,0,0-.1741-.5873,8.5848,8.5848,0,0,0,.3047-1.685,1.0622,1.0622,0,0,0,.0589-.4539l.0515-.3667s.0325-.8022.02-.8022l-.4431-.1089a5.7157,5.7157,0,0,0-.7987.0344c-.3142.034-.1618.0124-.4136.0433l-.6993.0312a1.2925,1.2925,0,0,1-.6405.1525l-.4476.4972-.8162.1213-1.5713.6153-2.4031,1.5388-1.2546.821a3.7278,3.7278,0,0,1-1.0941.9264l-.9311.8767a8.67,8.67,0,0,1-1.4952,1.7594c-.3187.7618-2.0176,3.8267-1.6633,3.9636-.4476,2.002-.64,2.13,1.29,4.032,1.3275,1.3118,3.51.2738,4.3039.0156a7.56,7.56,0,0,0,.6981-.5253c1.8667-.7586,2.263-1.2281,3.8579-3.1024l-.0064.1769.3826-.93c.9433-.9728.7583-1.6165,1.7471-2.7418.034-.0528.0652-.1057.0964-.1525a.0856.0856,0,0,1,.014.04,9.4625,9.4625,0,0,1,.5453,1.5669,9.1645,9.1645,0,0,0,1.9059,2.4964,2.6074,2.6074,0,0,0,2.4123.0964c.8672-.32,2.207-2.1729,2.3907-2.2446l-.028-.13a1.287,1.287,0,0,0,.2454-.339c.5924-.4724,1.1225-1.5512,1.259-1.5325.21-.1741.2907-.3543.5676-.3947-.0824-.1369.2267-.51.4072-.538.0124,0,.1942.23.2954.0841A6.6251,6.6251,0,0,1,147.79,29.02a23.927,23.927,0,0,0,2.4916,3.7834c.2814.6806.6608.6433.9359,1.2622.27-.0376.2578.317.47.3759.0933.367.6418.4976.9184.7927-.0653.106.0124.0592.02.1773.1569-.0465.1056.19.2982.0872.008.0557-.0528.0681-.028.1429a.7307.7307,0,0,1,.35.1149,9.4756,9.4756,0,0,0,3.359,1.9989c-.0372.0187-.0916.0187-.09.0684.6886.2954,1.3444.6157,2.07.8519.0375-.171-.2795-.1213-.1678-.1958.1757.04.3639.0652.4587.233.0962-.1617.0373.0468.0993.0248.8984-.0248,1.6942.5348,2.7358.5008.056.1553.4508.0681.3279.3075.2193-.1678.6621.1308.7834-.199.2114.1773.3187.0624.6157-.0248.0308.2021.2454.1681.3667.2489-.0217-.0932.1617-.0468.2254-.0808.3775.1553.9744-.0188,1.2217.1833a.9272.9272,0,0,0-.6.1586c.2053.062.5392-.0468.7181.0464.1134-.1085-.1321-.2145.0561-.289.0573.2206.0808-.05.1881-.0341.0621.0589.1461.0869.1693.199-.11.0216-.2193.0433-.3234.0653.2394.1709.7089.0464,1.0556.0744.0373-.0993-.1541-.13-.028-.1865a1.2783,1.2783,0,0,0,.8019-.1025c.1849.0993.42-.0188.5408.13.2646-.1958.7166-.05,1.0913-.0716-.0621-.14.14-.093.1633-.171.1725.1681.6822.0873.9107.0156a3.8718,3.8718,0,0,0,1.5545-.1617c-.0217-.1677.0328-.1365-.0357-.27-.1557.0464-.0608.1553-.1849.034-.0608.0436.014.171-.0685.1958a3.3118,3.3118,0,0,1-.7121.05c-.006-.0653.05-.0777.028-.1461-.418.1894-.62.0308-1.01.28.1646-.3483-.2209-.0592-.2814-.311a.2679.2679,0,0,1,.1942.0092c-.0668-.2423-.2983-.1181-.3279.0624.05-.01.1181,0,.05.0309-.1413.0468-.2162-.0809-.2006-.2455.1509-.0592.3779-.0312.6313-.1149-.0516-.2085.1738-.2365.185-.4011.0776.2423.4119.1025.5873.0745-.014.2766-.48.1089-.5441.2426.12-.022.0949.1585.2114.14-.006-.0713.311-.1305.3234-.0557-.06.093-.2658.0869-.2533.233.1725-.034.2845-.261.4227-.084.036-.1057.0172-.255.1461-.3078.2378.0063.743.0932.9327-.177-.0544.177.157,0,.1538.1117-.12.1277-.1662.2862-.25.2333-.0264.171.1881.0309.2846.0373-.07-.2859.1228-.4072.2409-.3667.0433.0153-.0171.1365.0637.1241.0124,0-.0436-.2145.0264-.1865.0389.1741.2967.0933.426.0063.0156.0685.0028.171.07.171,0-.0312,0-.05.0436-.0529a.0922.0922,0,0,0,.0372-.0092h0c.1525-.0375-.1477-.04,0-.084.1742.1149.5024-.0716.7446-.1461-.0032-.0717-.042-.1618.0188-.19a1.2023,1.2023,0,0,1,.3311-.0156c-.0249.106-.2846.0436-.2069.2241a.144.144,0,0,0,.0251.0093c.2018-.1586.4972-.3171.7118-.23-.0264.05-.1009.0592-.0825.1585a1.5386,1.5386,0,0,1,.2006-.0372c-.0076-.0032-.0124-.0032-.0124-.0156-.0124-.1241-.0949-.0713-.0264-.1865a8.0633,8.0633,0,0,0,2.7045-.4632c0-.0621-.02-.13.0452-.1461.028-.0465.1242-.0465.1165-.1213.1009.0188.0373.1245-.0483.1557.0608.0776.1929.0713.353.0184a.239.239,0,0,1,.1445-.227c.0793-.0652.1974-.1025.1725-.2422a.1369.1369,0,0,1,.1322.0684c.0063,0,.0124-.01.0248-.01.0621.056.1493.084.1677.1989-.0432.0064-.0512.0468-.0885.0685-.0977.0436-.0977-.0465-.1493-.0685-.0184.0156-.0432.0373-.0681.0593a.729.729,0,0,1,.1321.4383.59.59,0,0,1,.3155-.1525c0-.0964-.0732-.0808-.1105-.1213.4852-.1894,1.0057-.4724,1.4472-.6a1.0506,1.0506,0,0,0,.0124.1366.4728.4728,0,0,0,.4851-.3171c.1258.2082.3728-.056.5345.0748.05-.1.0436-.2394.2053-.2706.0077.0465-.0608.0841.0141.09.191-.1865.2174,0,.55-.1025-.0589-.1678.1633-.2238.014-.3266-.2782.0376.0637.2426-.2037.2706-.0821-.1089-.1942-.1337-.3419-.028.0236-.1522-.0869-.1337-.1617-.1554-.0681.0965.0933.1678-.1133.2082-.0621-.0621-.0172-.1493-.0545-.2486a.622.622,0,0,1-.1181.09c-.1569.1741-.3418.1585-.5736.3046,0-.0964-.03-.1461-.0933-.1553a.5989.5989,0,0,0-.048.04c0,.05.0916.0809-.0513.1025-.0108-.0216-.0108-.0372-.02-.0528-.0544.04-.1041.0468-.1349,0a1.2339,1.2339,0,0,0-.1185.1493c.02-.0344.1013.1244-.0356.0964-.0185-.0624-.07-.0652-.1569-.1525l.0187-.0184c-.0127-.0128-.0127-.0312-.0127-.0656-.0977.0748.12.1929-.1181.2146.0124-.0838-.0169-.1242-.0869-.1213,0,.01.0076.0124.0076.028.0685.1152-.2422.1805-.2174.1337a.2636.2636,0,0,1,0-.1926.5826.5826,0,0,1-.23.0092.0929.0929,0,0,1,.0436-.04c-.0761.0124-.0761-.0312-.1509-.1273-.0545.2486-.34.2113-.5889.2018.0417.1089-.1742.2333-.2254.14.205-.084.163-.0744.07-.2021.1617-.23.6593-.1213.6761-.3139.1433-.084.0577.14.2006.0589a.8641.8641,0,0,1,.6405-.2174c.0544-.1337.3963-.0716.4335-.311.1493-.0092.1493-.1181.3171-.1149-.0293.09-.135.1709.0264.1865.0608-.112.0732-.2486.249-.28.0977.0653-.0436.1493.1181.1585.1041-.1213.0792-.1369.11-.2457.0949.1244.17-.0309.2489.0872a.2357.2357,0,0,1,.2051-.2674c.1181.1525-.0621.0809-.0125.2766.3419-.0589.5909-.5.8595-.3482.0437-.0993-.0448-.205.1618-.2642.1228-.0153.1228.1524.2113.1929.1369-.1462.3155-.028.4587-.1337C182.7739,35.132,182.7507,34.8894,182.6058,34.9238Zm-46.7537-9.2394c-.4039.8739-.3419,1.8343-1.08,2.1485l-.0388.3979c-.12.6838-.69,1.0072-1.0913,1.4732l.1258.1681a2.4594,2.4594,0,0,1-.9932,1.1377,29.7462,29.7462,0,0,1-2.4837,2.145c-1.0912.0124-.7678.4912-2.1232.3763a1.4546,1.4546,0,0,1-.398-2.195,9.9712,9.9712,0,0,1,1.5293-3.0124c.97-1.4423,3.1165-2.5925,3.7306-3.3947a9.2935,9.2935,0,0,1,3.0464-1.6257Zm12.7149-5.0016c-.283-2.3659-.0652-4.1689-.1633-6.3575.0621-.0187.056-.0716.1369-.0744a27.7178,27.7178,0,0,1,.2674-4.1721c.41-.37-.12-1.6382.4383-1.7566-.0515-.2922.306-.7739.0885-.7926a4.0978,4.0978,0,0,1,.687-1.713c-.0108-.0713-.0216-.149-.0341-.2238a4.1229,4.1229,0,0,1,1.4641-1.0569c.1429.0373-.1618.6093.0932.5068.2426.2394.3031.7026.5909.892l.0745.4447c.2425.2362.0356,1.0289.2954,1.1193a2.4744,2.4744,0,0,0-.028.5969c-.0917,1.2994.1693.9511-.0281,2.1509.02.14.1586.1089.0281.7774-.0357,0-.0917.3387-.1274.3451-.04-.0716.0465.2827-.0964.2734-.0949.1493.02.3483-.0669.5657.0233.0436.0853.0188.1353.0252-.0095.0464-.02.0961-.0312.1489-.0637.0529-.1229.0748-.1585.1617.02.0841.0777-.0372.0948.0344a.5734.5734,0,0,0-.0872.4848,1.285,1.285,0,0,1-.0356.1525c-.0857.0869-.18.0557-.2923.177-.0187.1089.0825.37-.1849.41.1273.1244.0108.3482.1057.4351-.12.0128-.199.0624-.1662.1713.0977.13-.2161.5873-.4323.7334.1678.1057.0188.4944.255.5036-.0965.0748-.1913.1834-.2751.0529a12.6617,12.6617,0,0,0-.56,1.2186c.1369-.0682.1009.084.1181.1648a.9854.9854,0,0,0-.3.2455c.0589.2145-.12.4106-.1664.5844-.0249.0809-.2066.56-.3063.566a4.4838,4.4838,0,0,1-.5345,1.0353c-.1649-.01-.168.2145-.1881.3543C148.7472,19.9863,148.9166,20.5147,148.567,20.6828Zm20.1509,18.4563c-.01-.0684.0745-.0684.1489-.0716a.1363.1363,0,0,0-.014.0872A.165.165,0,0,1,168.7179,39.1391Zm.1489.0156a.2033.2033,0,0,1,.0669-.0776A.1239.1239,0,0,1,168.8668,39.1547Zm.1634-.2486a.525.525,0,0,1,.4167-.32c-.0281.0092-.0577-.022-.0064-.0405.0652.0312.1849.0093.2066.0994C169.4825,38.6419,169.36,38.8437,169.03,38.9061Zm2.5492-.516c.1725-.0872.1228.1149.2438.0993C171.7939,38.5919,171.5638,38.5206,171.5794,38.39Zm.948.1614c0-.1117.112-.1273.1789-.0809C172.6983,38.5362,172.5974,38.53,172.5274,38.5515Zm.2317-.04c-.0356-.0962.056-.1025.1305-.115A.1516.1516,0,0,1,172.7591,38.5111Zm.3683-.4912c-.0652-.149.1337-.0993.2178-.1334C173.35,37.9922,173.2423,38.0014,173.1274,38.02Zm.5705.1337a.1126.1126,0,0,1,.1849-.0837C173.8752,38.1351,173.7711,38.1259,173.6979,38.1536Zm.2534-.3231c.0716-.0777.2594-.1929.3591-.1153A.4205.4205,0,0,1,173.9513,37.8305Zm.4227.1117c-.0248-.1181.3807-.2422.3747-.0684A.4214.4214,0,0,0,174.374,37.9422Zm.6093-.4444c.1445-.0248.3-.0777.2922.0869C175.14,37.6127,174.9957,37.6376,174.9833,37.4978Zm.5721.5625c-.2114-.1522-.2859.0748-.5084.0376.1057-.2518.3918-.1433.614-.3451.0077.0837.0685.0837.0621.177C175.65,37.9578,175.4933,37.9206,175.5554,38.06Zm.53-.8051c-.1554.0592-.18-.0528-.2066-.1493a.2921.2921,0,0,0,.2314,0A.2372.2372,0,0,0,176.0854,37.2552Zm.042.5068c.0124-.04.0436-.056.0436-.1.0325-.0092.0557-.0124.0869-.0185C176.2891,37.74,176.2083,37.7464,176.1274,37.762Zm.4056-.6373a.5452.5452,0,0,1-.0949.0188c-.0061-.1805-.0621.0277-.1413-.0656-.0077-.1085.1929-.0557.2674-.0929C176.5829,37.05,176.533,37.0655,176.533,37.1247Zm.566.5129c-.0577-.0061-.0809-.0713-.1433-.0653.0064-.0713.1044-.0621.1713-.0809A.2744.2744,0,0,0,177.099,37.6376Zm.0681-.2423c-.1133.0092-.0325-.1585-.02-.1929.0561.0064.0452.09.1009.0777C177.2479,37.33,177.1626,37.3269,177.1671,37.3953Zm.0732-.2053c-.0048-.1617.2922-.2579.3607-.1121C177.5777,37.1839,177.3336,37.2521,177.24,37.19Zm1.1441-.2486c0,.028.0076.056.0076.0869a.2548.2548,0,0,1-.0932.0156.334.334,0,0,1-.0077-.0841A.3124.3124,0,0,1,178.3844,36.9414Zm-.516-.0093a1.6429,1.6429,0,0,1,.014.1926C177.7391,37.1559,177.6818,36.9382,177.8684,36.9321Z" transform="translate(-2.2827 -2.199)" fill="#fefefe"/><path d="M189.4156,33.0863a6.0289,6.0289,0,0,1-2.4123-.5,6.1336,6.1336,0,0,1-3.2222-3.3014,6.0214,6.0214,0,0,1-.4587-2.3812,6.1785,6.1785,0,0,1,.5007-2.4031,6.2737,6.2737,0,0,1,3.3046-3.261,6.184,6.184,0,0,1,6.78,1.3708,6.2986,6.2986,0,0,1,1.2854,1.9615,6.2491,6.2491,0,0,1-.0417,4.7782,6.1181,6.1181,0,0,1-1.329,1.9492,6.2208,6.2208,0,0,1-1.9756,1.315,5.981,5.981,0,0,1-2.3735.4724Zm.0777-11.5673a5.1566,5.1566,0,0,0-2.0861.42,5.5335,5.5335,0,0,0-1.719,1.15,5.2979,5.2979,0,0,0-1.15,1.7069,5.6608,5.6608,0,0,0-.0344,4.209,5.2585,5.2585,0,0,0,1.11,1.7222,5.4091,5.4091,0,0,0,1.6894,1.1628,5.1254,5.1254,0,0,0,2.12.4412h0a5.3145,5.3145,0,0,0,2.1357-.41,5.456,5.456,0,0,0,1.727-1.1533,5.2706,5.2706,0,0,0,1.15-1.7034,5.391,5.391,0,0,0,.4227-2.0892,5.4565,5.4565,0,0,0-.3887-2.1326,5.3294,5.3294,0,0,0-4.9195-3.3231l-.0576-.0684Zm1.9027,8.4432-1.8375-2.4-1.4751.0156L188.06,29.925l-1.0568-.0032.0544-6.3823,2.8631.0248a3.2948,3.2948,0,0,1,1.0912.19,2.1522,2.1522,0,0,1,.8035.5036,1.6824,1.6824,0,0,1,.38.5472,1.6551,1.6551,0,0,1,.1289.7181,1.7231,1.7231,0,0,1-.482,1.29,2.4488,2.4488,0,0,1-1.0988.6033l1.9383,2.5552ZM189.8119,26.63a1.8064,1.8064,0,0,0,1.0292-.2642.8918.8918,0,0,0,.3916-.7679.8737.8737,0,0,0-.35-.7617,1.59,1.59,0,0,0-1.0056-.2951l-1.7674-.0124-.0153,2.0857Z" transform="translate(-2.2827 -2.199)" fill="#fefefe"/><path d="M189.5012,20.8349h.0573a6.17,6.17,0,0,1,2.3847.5,5.8768,5.8768,0,0,1,1.91,1.3246,6.1054,6.1054,0,0,1,1.2778,1.9335,5.9429,5.9429,0,0,1,.4507,2.3563v.028a5.8773,5.8773,0,0,1-.4972,2.3471,6.1537,6.1537,0,0,1-1.309,1.9243,6.3,6.3,0,0,1-1.9568,1.3027,5.95,5.95,0,0,1-2.3455.4692h-.0576a6.04,6.04,0,0,1-5.5692-3.7583,5.8772,5.8772,0,0,1-.454-2.35v-.0344a5.9564,5.9564,0,0,1,.49-2.3471,6.203,6.203,0,0,1,3.269-3.23,6.0255,6.0255,0,0,1,2.35-.4664m-.0235,11.5677a5.21,5.21,0,0,0,2.1077-.42,5.4624,5.4624,0,0,0,1.7473-1.1689,5.2741,5.2741,0,0,0,1.161-1.7222,5.3484,5.3484,0,0,0,.4351-2.1172v-.0341A5.5,5.5,0,0,0,193.41,23.08a5.4742,5.4742,0,0,0-1.7114-1.1753,5.3093,5.3093,0,0,0-2.1481-.4507c-.0188,0-.0388-.0029-.0576-.0029a5.3245,5.3245,0,0,0-2.1125.4228,5.5154,5.5154,0,0,0-1.739,1.1689,5.3056,5.3056,0,0,0-1.1661,1.7222,5.547,5.547,0,0,0-.43,2.1169v.0344a5.3741,5.3741,0,0,0,.3963,2.1169,5.1873,5.1873,0,0,0,1.1222,1.7409,5.422,5.422,0,0,0,1.7113,1.1782,5.2342,5.2342,0,0,0,2.1437.4508h.0589m-2.35-8.7946,2.7883.0248a3.1938,3.1938,0,0,1,1.068.1833,2.1532,2.1532,0,0,1,.78.4912,1.5617,1.5617,0,0,1,.3651.5224,1.6509,1.6509,0,0,1,.1277.6933v.0309a1.6387,1.6387,0,0,1-.4616,1.2126,2.3777,2.3777,0,0,1-1.169.6093l1.9148,2.5272-1.1453-.0124-1.7783-2.3687-.0356-.0032-1.5653-.0124-.0235,2.3534-.92-.0064.0544-6.2453m2.7154,3.0868a1.8829,1.8829,0,0,0,1.0368-.27.9511.9511,0,0,0,.418-.8271V25.57a.9317.9317,0,0,0-.3715-.7894,1.6385,1.6385,0,0,0-1.0492-.3047l-1.8327-.0156-.02,2.2194,1.783.0156h.0356m-.3419-5.9967a6.1974,6.1974,0,0,0-2.4.4759,6.3622,6.3622,0,0,0-3.3434,3.3043,6.1615,6.1615,0,0,0-.5008,2.397,6.076,6.076,0,0,0,.4619,2.4372,6.14,6.14,0,0,0,3.2579,3.3326,6.1628,6.1628,0,0,0,2.4387.5129h.0576a6.1836,6.1836,0,0,0,2.4-.4788,6.3216,6.3216,0,0,0,1.9957-1.3367,6.26,6.26,0,0,0,1.3866-6.8018,6.17,6.17,0,0,0-5.6969-3.8426Zm-.0235,11.5708h-.0545a5.2215,5.2215,0,0,1-2.0889-.4352,5.4411,5.4411,0,0,1-1.6709-1.1533,5.3609,5.3609,0,0,1-1.4828-3.7646,5.419,5.419,0,0,1,.4228-2.0953,5.218,5.218,0,0,1,1.1345-1.685,5.452,5.452,0,0,1,1.6974-1.138,5.1251,5.1251,0,0,1,2.058-.41h.0576a5.2122,5.2122,0,0,1,2.0937.4415,5.3959,5.3959,0,0,1,1.6661,1.1473,5.2734,5.2734,0,0,1,1.0977,1.6973,5.5731,5.5731,0,0,1-.0344,4.1594,5.2564,5.2564,0,0,1-1.1378,1.6849,5.3752,5.3752,0,0,1-1.7049,1.1377,5.061,5.061,0,0,1-2.0536.4136Zm-2.4853-8.7978-.0047.1369-.05,6.2453-.0048.1337h.1369l.9232.0093h.1369l.0032-.1366.02-2.2165,1.3943.0124,1.7394,2.3222.0388.0529h.07l1.1453.0092h.28l-.1709-.2238L190.86,27.4534a2.4429,2.4429,0,0,0,1.0291-.5937,1.7488,1.7488,0,0,0,.5052-1.3058,1.8749,1.8749,0,0,0-.1368-.777,1.6553,1.6553,0,0,0-.4-.5657,2.2786,2.2786,0,0,0-.819-.5224,3.3047,3.3047,0,0,0-1.1177-.1929l-2.7931-.0248Zm1.1718,3.0716.0156-1.9492,1.6974.0156a1.5467,1.5467,0,0,1,.9639.2795.7944.7944,0,0,1,.3247.6809.83.83,0,0,1-.3635.737,1.6664,1.6664,0,0,1-.9592.2518v.1365l-.0356-.1365-1.6433-.0156Z" transform="translate(-2.2827 -2.199)" fill="#fefefe"/><path d="M89.94,60.0642a.6088.6088,0,0,0-.8519-.0156,6.9914,6.9914,0,0,1-5.1044,2.3375c-3.2674,0-5.7326-2.68-5.7326-6.2858,0-3.5189,2.4652-6.1738,5.7326-6.1738a6.9578,6.9578,0,0,1,4.9707,2.2258.6092.6092,0,0,0,.8735-.0465l2.17-2.5a.6092.6092,0,0,0-.0375-.8395,10.57,10.57,0,0,0-7.9488-3.1645,10.5533,10.5533,0,0,0-.1369,21.1052,10.5522,10.5522,0,0,0,8.2413-3.5937.6119.6119,0,0,0-.0063-.8519Z" transform="translate(-2.2827 -2.199)" fill="#fefefe"/><path d="M103.7733,45.6023A10.519,10.519,0,0,0,93.0856,56.2091a10.3318,10.3318,0,0,0,10.6317,10.4984A10.522,10.522,0,0,0,114.4082,56.1,10.3361,10.3361,0,0,0,103.7733,45.6023Zm0,16.7838A5.9651,5.9651,0,0,1,97.8482,56.1a5.8939,5.8939,0,0,1,5.8691-6.1738,5.9642,5.9642,0,0,1,5.9251,6.2826A5.8967,5.8967,0,0,1,103.7733,62.3861Z" transform="translate(-2.2827 -2.199)" fill="#fefefe"/><path d="M125.3073,54.0238c-3.8919-.93-4.0877-1.53-4.0877-2.4808,0-1.0011,1.0133-1.6725,2.5209-1.6725a8.0887,8.0887,0,0,1,4.853,1.8559.6166.6166,0,0,0,.4568.1149.59.59,0,0,0,.4011-.2518l1.8155-2.5521a.6124.6124,0,0,0-.115-.83,11.3188,11.3188,0,0,0-7.3586-2.5489c-4.1561,0-7.1717,2.6017-7.1717,6.239,0,3.9079,2.5152,5.2818,6.87,6.3358,3.5908.83,3.8642,1.492,3.8642,2.4,0,1.33-1.4423,1.8031-2.7918,1.8031a8.1784,8.1784,0,0,1-5.67-2.35.6537.6537,0,0,0-.4476-.1461.6263.6263,0,0,0-.42.2174l-2.0329,2.4155a.6121.6121,0,0,0,.0621.8487,12.4649,12.4649,0,0,0,8.4247,3.23c4.5417,0,7.4764-2.49,7.4764-6.4039C131.957,56.1967,128.7644,54.8632,125.3073,54.0238Z" transform="translate(-2.2827 -2.199)" fill="#fefefe"/><path d="M150.0778,49.6715V46.541a.6083.6083,0,0,0-.6093-.6093H133.8721a.61.61,0,0,0-.6093.6093v3.1305a.6084.6084,0,0,0,.6093.6093h5.4836V65.7655a.6113.6113,0,0,0,.6093.6125h3.4071a.611.611,0,0,0,.6093-.6125V50.2808h5.4871A.6065.6065,0,0,0,150.0778,49.6715Z" transform="translate(-2.2827 -2.199)" fill="#fefefe"/><path d="M160.9365,46.1619a.6086.6086,0,0,0-.56-.367h-3.1305a.6081.6081,0,0,0-.5593.367L148.2312,65.523a.6092.6092,0,0,0,.5564.855h3.4632a.6062.6062,0,0,0,.56-.3731l1.8187-4.2685h8.2814l1.7938,4.2685a.61.61,0,0,0,.5628.3731h3.5689a.6142.6142,0,0,0,.5128-.277.6059.6059,0,0,0,.0465-.578Zm.2146,11.3623h-4.7626l2.3719-5.54Z" transform="translate(-2.2827 -2.199)" fill="#fefefe"/><path d="M88.0712,83.8955a6.307,6.307,0,0,0,4.2246-6.1864,6.4028,6.4028,0,0,0-1.775-4.5853,8.3427,8.3427,0,0,0-5.978-2.0953H75.9752a.6081.6081,0,0,0-.6093.6093V90.8591a.61.61,0,0,0,.6093.6093h3.3791a.61.61,0,0,0,.6093-.6093v-6.09H83.265L87.807,91.21a.6141.6141,0,0,0,.5.258H92.29a.6074.6074,0,0,0,.544-.3295.621.621,0,0,0-.0468-.6342Zm-8.1076-8.5707H84.269c1.5388,0,3.3731.4444,3.3731,2.6269,0,1.6072-1.2839,2.605-3.3451,2.605H79.9636Z" transform="translate(-2.2827 -2.199)" fill="#fefefe"/><path d="M94.0171,68.83h3.3791a.6125.6125,0,0,1,.6125.6125V88.6569a.6125.6125,0,0,1-.6125.6125H94.0171a.6093.6093,0,0,1-.6093-.6093V69.4388A.6093.6093,0,0,1,94.0171,68.83Z" fill="#fefefe"/><path d="M119.9418,85.1577a.6092.6092,0,0,0-.8518-.0156,6.9868,6.9868,0,0,1-5.1013,2.3347c-3.2706,0-5.7358-2.68-5.7358-6.2828,0-3.519,2.4652-6.1707,5.7358-6.1707a6.9515,6.9515,0,0,1,4.9676,2.2258.6058.6058,0,0,0,.8735-.05L122,74.7a.6063.6063,0,0,0-.04-.84,10.5687,10.5687,0,0,0-7.9459-3.1613,10.5516,10.5516,0,0,0-.1369,21.1019,10.5366,10.5366,0,0,0,8.2382-3.5937.609.609,0,0,0-.0061-.8517Z" transform="translate(-2.2827 -2.199)" fill="#fefefe"/><path d="M144.196,90.6166l-8.4588-19.3611a.6086.6086,0,0,0-.56-.367h-3.1305a.6086.6086,0,0,0-.56.367l-8.4588,19.3611a.5939.5939,0,0,0,.05.5751.605.605,0,0,0,.51.2767h3.46a.6135.6135,0,0,0,.5628-.3731L129.43,86.83h8.2782l1.7938,4.2651a.6116.6116,0,0,0,.566.3731h3.5686a.6106.6106,0,0,0,.56-.8518Zm-8.2442-8.0019h-4.7626l2.3687-5.5365Z" transform="translate(-2.2827 -2.199)" fill="#fefefe"/></svg>